<?xml version="1.0" standalone="no"?>
<!DOCTYPE svg PUBLIC "-//W3C//DTD SVG 1.1//EN" "http://www.w3.org/Graphics/SVG/1.1/DTD/svg11.dtd" >
<!--
2013-9-30: Created.
-->
<svg>
<metadata>
Created by iconfont
</metadata>
<defs>

<font id="iconfont" horiz-adv-x="1024" >
  <font-face
    font-family="iconfont"
    font-weight="500"
    font-stretch="normal"
    units-per-em="1024"
    ascent="896"
    descent="-128"
  />
    <missing-glyph />
    
    <glyph glyph-name="more" unicode="&#58931;" d="M278.325983 408.391527M191.401238 283.301554c-64.608483 0-117.17163 52.563146-117.17163 117.17163s52.563146 117.17163 117.17163 117.17163 117.17163-52.563146 117.17163-117.17163S256.009721 283.301554 191.401238 283.301554zM191.401238 476.712565c-42.039465 0-76.239382-34.20094-76.239382-76.239382s34.20094-76.239382 76.239382-76.239382 76.239382 34.20094 76.239382 76.239382S233.43968 476.712565 191.401238 476.712565zM527.134699 283.301554c-64.608483 0-117.17163 52.563146-117.17163 117.17163s52.563146 117.17163 117.17163 117.17163c64.609507 0 117.172653-52.563146 117.172653-117.17163C644.307352 335.8647 591.744205 283.301554 527.134699 283.301554zM527.134699 476.712565c-42.038442 0-76.239382-34.20094-76.239382-76.239382s34.20094-76.239382 76.239382-76.239382c42.039465 0 76.240405 34.20094 76.240405 76.239382C603.375104 442.511625 569.174164 476.712565 527.134699 476.712565zM862.869183 283.301554c-64.609507 0-117.172653 52.563146-117.172653 117.17163s52.563146 117.17163 117.172653 117.17163c64.608483 0 117.17163-52.563146 117.17163-117.17163 0-11.230786-1.591241-22.346961-4.727675-33.039487-3.182482-10.847046-14.557554-17.055444-25.400506-13.877055-10.846022 3.182482-17.058514 14.555507-13.877055 25.400506 2.039449 6.948249 3.072989 14.187117 3.072989 21.515013 0 42.039465-34.20094 76.239382-76.239382 76.239382-42.039465 0-76.240405-34.20094-76.240405-76.239382s34.20094-76.239382 76.240405-76.239382c11.721973 0 22.957875 2.582825 33.393551 7.676843 10.157337 4.959965 22.410406 0.744967 27.369348-9.413394s0.743944-22.411429-9.413394-27.369348C898.141524 287.279145 880.866069 283.301554 862.869183 283.301554z"  horiz-adv-x="1024" />

    
    <glyph glyph-name="iconset0203" unicode="&#58985;" d="M682.666667 187.733333c0 0-76.8 19.2-76.8 98.133333 0 70.4 32 93.866667 42.666667 110.933333 0 0 25.6 21.333333 8.533333 91.733333 27.733333 38.4 36.266667 102.4 2.133333 179.2-19.2 44.8-36.266667 70.4-61.866667 85.333333C580.266667 763.733333 558.933333 768 537.6 768c-38.4 0-74.666667-12.8-89.6-23.466667C405.333333 725.333333 377.6 708.266667 349.866667 640c-23.466667-55.466667 4.266667-117.333333 17.066667-149.333333-17.066667-70.4 6.4-93.866667 6.4-93.866667 12.8-17.066667 42.666667-42.666667 42.666667-110.933333 0-78.933333-76.8-98.133333-76.8-98.133333C294.4 170.666667 192 136.533333 192 21.333333c0 0 0-21.333333 21.333333-21.333333l597.333333 0c21.333333 0 21.333333 21.333333 21.333333 21.333333C832 136.533333 731.733333 170.666667 682.666667 187.733333zM236.8 42.666667c10.666667 59.733333 61.866667 83.2 117.333333 102.4l2.133333 0c38.4 10.666667 106.666667 51.2 106.666667 138.666667 0 74.666667-29.866667 110.933333-46.933333 130.133333-4.266667 4.266667-6.4 8.533333-6.4 8.533333-2.133333 2.133333-8.533333 19.2 2.133333 57.6 4.266667 19.2-2.133333 27.733333-2.133333 27.733333-10.666667 25.6-34.133333 74.666667-17.066667 115.2 21.333333 55.466667 40.533333 66.133333 76.8 81.066667 2.133333 0 4.266667 2.133333 6.4 4.266667C477.866667 712.533333 505.6 725.333333 537.6 725.333333c14.933333 0 29.866667-2.133333 40.533333-8.533333 12.8-6.4 25.6-21.333333 42.666667-64 34.133333-78.933333 12.8-121.6 2.133333-136.533333-6.4-10.666667-10.666667-23.466667-6.4-34.133333 8.533333-36.266667 2.133333-51.2 2.133333-53.333333 0 0-6.4-6.4-8.533333-10.666667-17.066667-19.2-46.933333-55.466667-46.933333-130.133333 0-87.466667 68.266667-128 106.666667-138.666667l2.133333 0c53.333333-19.2 106.666667-42.666667 117.333333-102.4L236.8 46.933333zM145.066667 194.133333c27.733333 8.533333 78.933333 40.533333 78.933333 113.066667 0 66.133333-21.333333 93.866667-32 110.933333l-2.133333 2.133333c0 0 0 0 0 0 0 2.133333-4.266667 14.933333 2.133333 38.4 2.133333 8.533333 0 19.2-2.133333 27.733333-8.533333 19.2-25.6 53.333333-12.8 81.066667 19.2 44.8 25.6 49.066667 46.933333 57.6 2.133333 0 4.266667 2.133333 6.4 2.133333 4.266667 4.266667 27.733333 10.666667 49.066667 10.666667 10.666667 0 19.2-2.133333 25.6-6.4 2.133333 6.4 4.266667 14.933333 6.4 21.333333 2.133333 6.4 6.4 12.8 8.533333 17.066667-12.8 6.4-27.733333 8.533333-42.666667 8.533333-29.866667 0-59.733333-10.666667-72.533333-17.066667-34.133333-14.933333-49.066667-27.733333-70.4-81.066667-19.2-44.8 4.266667-91.733333 14.933333-115.2-12.8-55.466667 4.266667-74.666667 4.266667-74.666667 10.666667-12.8 25.6-32 25.6-87.466667 0-61.866667-46.933333-72.533333-46.933333-72.533333C93.866667 221.866667 42.666667 192 42.666667 106.666667c0 0 0-21.333333 21.333333-21.333333l96 0c4.266667 14.933333 12.8 29.866667 19.2 42.666667l-91.733333 0C93.866667 168.533333 119.466667 183.466667 145.066667 194.133333zM891.733333 234.666667c0 0-46.933333 10.666667-46.933333 72.533333 0 55.466667 17.066667 74.666667 25.6 87.466667 0 0 19.2 19.2 4.266667 74.666667 10.666667 23.466667 34.133333 72.533333 14.933333 115.2-21.333333 53.333333-36.266667 66.133333-70.4 81.066667C806.4 672 778.666667 682.666667 746.666667 682.666667c-14.933333 0-29.866667-2.133333-42.666667-8.533333 6.4-12.8 10.666667-27.733333 12.8-40.533333 0 0 2.133333 0 2.133333 0C725.333333 637.866667 736 640 746.666667 640c21.333333 0 42.666667-8.533333 49.066667-10.666667 2.133333-2.133333 4.266667-2.133333 6.4-2.133333 21.333333-8.533333 29.866667-12.8 46.933333-57.6 10.666667-25.6-4.266667-61.866667-12.8-81.066667-4.266667-8.533333-6.4-19.2-2.133333-27.733333 6.4-23.466667 2.133333-34.133333 2.133333-38.4 0 0 0 0 0 0l-2.133333-2.133333c-10.666667-14.933333-32-44.8-32-110.933333 0-72.533333 49.066667-106.666667 78.933333-113.066667 27.733333-10.666667 53.333333-25.6 59.733333-66.133333l-91.733333 0c8.533333-12.8 14.933333-27.733333 19.2-42.666667l96 0c21.333333 0 21.333333 21.333333 21.333333 21.333333C981.333333 192 930.133333 221.866667 891.733333 234.666667z"  horiz-adv-x="1024" />

    
    <glyph glyph-name="alert" unicode="&#58880;" d="M240.089 161.529l74.158 148.315v197.754c0 109.209 88.545 197.754 197.754 197.754s197.754-88.545 197.754-197.754v-197.754l74.158-148.315h-543.823zM512 62.65c-32.258 0-59.402 20.691-69.609 49.438h139.219c-10.209-28.748-37.351-49.438-69.609-49.438v0zM759.193 309.842v197.754c0 136.499-110.693 247.193-247.193 247.193s-247.193-110.692-247.193-247.193v-197.754l-98.877-197.754h224.97c11.445-56.409 61.305-98.877 121.099-98.877s109.655 42.468 121.099 98.877h224.97l-98.877 197.754z"  horiz-adv-x="1024" />

    
    <glyph glyph-name="74" unicode="&#59147;" d="M566.4 641.6c-30.4 30.4-78.4 30.4-108.8 0l-225.6-225.6c-11.2-11.2-14.4-27.2-8-41.6s19.2-24 35.2-24h8v-168c0-41.6 35.2-76.8 76.8-76.8h334.4c41.6 0 76.8 35.2 76.8 76.8v168h8c16 0 28.8 9.6 35.2 24 6.4 14.4 3.2 30.4-8 41.6l-224 225.6zM758.4 390.4c0-1.6-1.6-1.6-3.2-1.6-20.8 0-36.8-17.6-36.8-38.4v0-168c0-20.8-17.6-38.4-38.4-38.4h-334.4c-20.8 0-38.4 17.6-38.4 38.4v168c0 20.8-16 38.4-36.8 38.4-1.6 0-3.2 1.6-3.2 1.6 0 1.6 0 3.2 1.6 4.8l217.6 217.6c14.4 14.4 40 14.4 54.4 0l217.6-217.6c0-1.6 0-3.2 0-4.8zM512 864c-265.6 0-480-214.4-480-480s214.4-480 480-480 480 214.4 480 480c0 265.6-214.4 480-480 480zM512-57.6c-243.2 0-441.6 198.4-441.6 441.6s198.4 441.6 441.6 441.6c243.2 0 441.6-196.8 441.6-441.6 0-243.2-198.4-441.6-441.6-441.6z"  horiz-adv-x="1024" />

    
    <glyph glyph-name="aui-icon-home" unicode="&#58897;" d="M882.697 421.532q-82.214 82.214-328.122 328.122-17.617 18.351-43.309 18.351-24.958 0-43.309-18.351-54.32-54.32-163.694-163.694-108.64-109.374-162.96-164.428-5.138-5.138-5.138-10.277 0-5.138 5.138-11.011 10.277-10.277 21.288 0 109.374 109.374 328.122 328.122 8.809 8.809 21.288 8.809 12.479 0 21.288-8.809 109.374-109.374 328.122-328.856 5.872-5.138 11.011-5.138 5.138 0 10.277 5.138 5.138 4.404 5.138 11.011 0 6.606-5.138 11.011zM765.982 439.15q-6.606 0-10.277-3.67-4.404-4.404-4.404-11.011 0-109.374 0-327.388 0-11.745-8.809-21.288-8.809-8.809-21.288-8.809-33.766 0-100.565 0 0 60.192 0 242.237 0 24.958-17.617 42.575-18.351 18.351-43.309 18.351-31.564 0-93.959 0-25.692 0-43.309-18.351-18.351-17.617-18.351-42.575 0-81.48 0-244.44-24.958 0-99.831 0-12.479 0-21.288 8.809-8.809 8.809-8.809 21.288 0 110.108 0 329.59 0 6.606-4.404 11.011-4.404 3.67-11.011 3.67-6.606 0-10.277-3.67-4.404-4.404-4.404-11.011 0-16.149 0-47.713 0-69.735 0-279.674 0-24.958 18.351-42.575 17.617-18.351 42.575-18.351 138.736 0 416.208 0 25.692 0 43.309 18.351 18.351 17.617 18.351 42.575 0 109.374 0 327.388-1.468 5.872-6.606 10.277-4.404 4.404-10.277 4.404zM434.19 309.222q0 11.745 9.543 20.553 8.809 9.543 20.553 9.543 31.564 0 93.959 0 12.479 0 21.288-9.543 8.809-8.809 8.809-20.553 0-81.48 0-244.44-38.171 0-154.151 0 0 60.926 0 244.44z"  horiz-adv-x="1024" />

    
    <glyph glyph-name="back" unicode="&#58922;" d="M1008.48 399.52c-8.544 0-15.52-6.976-15.52-15.52 0-265.216-215.744-480.96-480.96-480.96-265.248 0-480.96 215.744-480.96 480.96 0 265.216 215.744 480.992 480.96 480.992 8.544 0 15.52 6.944 15.52 15.488C527.52 889.088 520.544 896 512 896c-282.336 0-512-229.664-512-512s229.696-512 512-512c282.304 0 512 229.76 512 512C1023.968 392.576 1017.024 399.52 1008.48 399.52zM513.408 558.016c6.208 5.92 6.4 15.712 0.48 21.952-5.952 6.144-15.744 6.368-21.952 0.48l-180.768-173.248c-0.032-0.032-0.064-0.096-0.096-0.128-0.032-0.032-0.096-0.064-0.128-0.096-0.64-0.64-0.928-1.44-1.44-2.176-0.672-0.928-1.44-1.824-1.888-2.848-0.288-0.736-0.288-1.536-0.48-2.304-0.288-1.184-0.672-2.304-0.672-3.52 0-0.832 0.288-1.6 0.416-2.4 0.16-1.152 0.224-2.336 0.672-3.424 0.32-0.8 0.96-1.44 1.376-2.208 0.608-0.96 0.992-2.016 1.824-2.848 0.032-0.032 0.096-0.064 0.16-0.096 0.032-0.032 0.032-0.064 0.064-0.096l175.552-175.552c3.04-3.072 7.008-4.576 10.976-4.576 3.968 0 7.936 1.504 10.944 4.576 6.048 6.048 6.048 15.872 0 21.888l-146.784 146.848 363.68 0c8.576 0 15.52 6.944 15.52 15.488 0 8.576-6.976 15.52-15.52 15.52L358.176 409.248 513.408 558.016z"  horiz-adv-x="1029" />

    
    <glyph glyph-name="close" unicode="&#58906;" d="M512-61.384231c-215.912861 0-391.508344 176.823424-391.508344 394.168882 0 151.855301 84.11392 287.645048 219.801339 354.363146 14.4283 7.060658 31.721795 1.125612 38.782452-13.507345 7.060658-14.4283 1.125612-31.926451-13.302688-38.987109C250.346358 577.758769 176.874588 461.411412 176.874588 331.55671c0-185.82832 150.320376-337.069651 335.227741-337.069651 184.702708 0 335.125412 151.241331 335.125412 337.069651 0 130.059358-73.676427 246.406715-189.307485 303.198961-14.4283 7.060658-20.465674 24.661137-13.405016 39.191766 6.958329 14.530629 24.45648 20.568002 38.782452 13.507345 135.789747-66.615769 220.210653-202.610173 220.210653-354.567803C903.508344 115.439193 727.810533-61.384231 512-61.384231zM512 495.384431c-15.553912 0-27.935645 12.484061-27.935645 27.935645l0 278.333167c0 15.451584 12.58639 27.833317 27.935645 27.833317 15.451584 0 27.935645-12.381733 27.935645-27.833317L539.935645 523.217748C540.037973 507.868492 527.451584 495.384431 512 495.384431z"  horiz-adv-x="1024" />

    
    <glyph glyph-name="Monitor" unicode="&#58890;" d="M994.066 381.538c0-266.586-216.111-482.689-482.691-482.689-266.592 0-482.703 216.103-482.703 482.689 0 266.592 216.111 482.705 482.701 482.705 266.58 0 482.693-216.113 482.693-482.705zM511.373 833.526c-249.627 0-451.983-202.359-451.983-451.985 0-249.62 202.359-451.969 451.983-451.969 249.614 0 451.971 202.351 451.971 451.969 0.002 249.627-202.357 451.985-451.971 451.985zM50.436 421.138h269.918l60.416-100.694 91.136 378.198 114.006-526.336 104.788 271.020h281.6v-30.38h-260.436l-134.486-348.5-106.838 494.592-77.824-319.148-89.77 150.528h-252.51z"  horiz-adv-x="1024" />

    
    <glyph glyph-name="me" unicode="&#58917;" d="M512 889.535354C233.94004 889.535354 8.605737 664.166141 8.605737 386.141091c0-278.026343 225.334303-503.394263 503.394263-503.394263 277.992727 0 503.394263 225.367919 503.394263 503.394263C1015.394263 664.166141 789.992727 889.535354 512 889.535354L512 889.535354zM218.312404 22.213818c40.02004 110.681212 144.681374 192.958061 256.827475 207.122101l0 42.718384c-75.160566 14.602343-133.818182 82.292364-133.818182 164.283475 0 92.672 76.544 167.798949 169.253495 167.798949 92.638384 0 164.730828-75.126949 164.730828-167.798949 0-77.527919-52.230465-142.03604-127.39103-161.193374l0-46.515717c112.144808-13.896404 218.952404-91.914343 260.794182-198.49697-81.132606-68.587313-185.479758-110.098101-300.039758-110.098101C398.590707-79.971556 298.061576-41.590949 218.312404 22.213818L218.312404 22.213818zM841.846949 56.841051c-42.679596 97.158465-127.164768 171.607919-231.090424 199.775677 63.36 34.901333 106.327919 102.284929 106.327919 179.722343 0 113.268364-91.834182 205.08703-205.084444 205.08703-113.283879 0-205.085737-91.823838-205.085737-205.08703 0-79.222949 44.974545-147.825778 110.775596-181.982384-103.196444-30.586828-186.192162-107.115313-226.570343-205.73996C101.829818 133.532444 45.892525 253.187879 45.892525 386.141091c0 257.433859 208.655515 466.106182 466.106182 466.106182 257.418343 0 466.107475-208.672323 466.107475-466.106182 0-128.581818-52.071434-244.962263-136.260525-329.293576L841.845657 56.841051zM841.846949 56.841051"  horiz-adv-x="1024" />

    
    <glyph glyph-name="downarrow1" unicode="&#58926;" d="M366.393761 486.784968l291.212478 0L512 281.215032 366.393761 486.784968z"  horiz-adv-x="1024" />

    
    <glyph glyph-name="close1" unicode="&#58891;" d="M651.957 296.149l-88.715 88.743 88.84 88.87c14.007 14.012 13.976 36.734 0 50.747-14.007 14.012-36.659 14.044-50.729 0l-88.839-88.87-88.683 88.743c-14.007 14.013-36.786 13.98-50.761 0-14.008-14.012-14.039-36.734 0-50.777l88.713-88.743-88.84-88.87c-13.976-13.98-14.039-36.766-0.031-50.777 13.975-13.98 36.721-14.013 50.761 0.031l88.777 88.808 88.715-88.744c13.945-13.949 36.721-14.044 50.793 0.032 13.974 14.043 14.006 36.765-0.001 50.809v0 0M829.352 702.312c-174.713 174.774-459.122 174.836-633.899 0-174.778-174.836-174.715-459.34 0-634.113 174.778-174.836 459.122-174.899 633.931-0.031 174.778 174.837 174.778 459.276-0.032 634.144v0 0M235.109 107.837c-152.946 152.998-152.915 401.84-0.032 554.806 152.978 153.028 401.705 152.998 554.651 0.031 152.946-152.997 152.977-401.838 0-554.868-152.852-152.966-401.705-152.966-554.62 0.032v0 0M235.109 107.837v0z"  horiz-adv-x="1024" />

    
    <glyph glyph-name="map" unicode="&#58898;" d="M485.5 291.7l0.5-0.3 0.4-0.5c5.9-6.6 14.4-10.3 23.2-10.3 8.9 0 17.4 3.7 23.3 10.3l0.4 0.5 0.5 0.4c57.8 54.7 192.4 196.8 192.4 333.1 0 119.3-97.1 216.2-216.6 216.2-119.3 0-216.6-97-216.6-216.2 0.1-136.3 134.7-278.4 192.5-333.2zM356.3 623.9c0 84.4 68.8 153.1 153.3 153.1 84.6 0 153.4-68.7 153.4-153.1 0-76.8-54.7-165.2-100.7-226-11-18.5-31-30-52.7-30-21.6 0-41.6 11.5-52.6 30-46 60.9-100.7 149.3-100.7 226z m568.4-14.3l-1.8-0.1c-4.9-0.2-9.7-1.7-14-4.1l-68.5-39.5c-7.2-4.2-12.4-10.9-14.6-18.9-2.1-8-1-16.5 3.1-23.6 5.6-9.6 15.9-15.5 27-15.5 5.3 0 10.7 1.4 15.4 4l22.4 12.7v-388.1L656.2 15 370.8 164.6l-1 0.9c-5.4 4-12 6.2-19 6.2h-0.8c-6.9 0-13.7-2.3-19.1-6.5l-1-0.7-204.1-110v398l53.3 30.8c7.2 4.2 12.3 10.9 14.5 18.9 2.1 8 1 16.3-3.1 23.5-5.6 9.5-15.9 15.5-27 15.5-5.4 0-10.8-1.4-15.5-4.1l-68.7-39.6c-5.9-3.3-10.4-8.4-13.2-15-1.8-4-2.7-8.3-2.7-12.6V3c0-3.8 0.6-7.6 2.1-11.3 0.5-1.4 1-2.6 1.7-3.7 5.4-10.3 16-16.8 27.7-16.8 5 0 9.9 1.2 14.2 3.4l241.8 130.3 291.6-152.8c4.5-2.3 9.3-3.5 14.4-3.5 6.8 0 13.6 2.3 19.1 6.5l1.1 0.8 262.1 134c7.5 3.8 13 10.5 15.5 18.9 1 3.1 1.4 6.2 1.4 9.4V578.5c-0.1 17.1-14.1 31.1-31.4 31.1z"  horiz-adv-x="1024" />

    
    <glyph glyph-name="electricfence" unicode="&#59017;" d="M413.520862-20.871977c0 37.607671 3.663968 59.719477 53.751529 59.719477 64.319437 0 61.839459-90.791206 3.967966-99.42313-24.879782-3.719967-57.719495 16.01586-57.719495 39.703653zM79.099788 223.96588c0 68.951397 101.519112 76.55933 101.519112 0 0.008-67.231412-101.519112-60.943467-101.519112 0z m429.980238 507.611559c-40.423646 0-53.75153 13.327883-53.75153 53.751529 0 92.287192 149.71869 27.247762 88.167228-40.399646-8.01593-8.823923-18.919834-13.351883-34.415698-13.351883z m-125.414903 47.775582c0-31.431725 17.17585-58.695486 29.855739-77.631321-5.815949-6.687941 1.13599 2.399979-8.127929-9.783914l-236.717929-354.500899C39.940131 399.204347-58.123011 178.142281 81.219769 118.550803c49.887563-21.327813 86.559243-8.759923 123.294921 15.831861 10.927904-14.919869 80.903292-59.143482 103.943091-75.207342 18.479838-12.879887 19.695828-15.887861 39.375655-26.31177-0.615995-27.567759-5.975948-20.015825-5.975947-41.807634 0-127.830881 201.214239-179.566429 238.87791-17.911843 18.191841 0.407996 21.76781 2.703976 35.831686 5.975948-2.055982 91.823197-26.775766 61.463462-47.783582 59.719477-10.479908 39.231657-58.32749 71.655373-107.495059 71.655373-38.399664 0-47.599584-16.879852-77.639321-23.879791-11.703898 7.831931-17.551846 13.67988-30.983729 22.767801L246.314325 182.166246c0 32.087719 8.679924 39.551654 1.855984 67.143413-5.991948 24.255788-14.767871 35.903686-25.743775 52.303542l244.845857 364.284812c87.807232-20.463821 155.262641 28.127754 155.262642 119.438955 0 153.606656-238.86991 143.278746-238.86991-5.983947zM927.108368 20.919657l83.607268 5.975948c-14.303875 27.023764-27.695758 50.975554-41.807634 77.63132-9.335918-6.247945-10.063912-7.895931-22.655802-13.207884-56.167509-23.695793-20.335822-17.031851-19.143832-70.399384zM670.318615 38.8395c0-30.015737 5.367953-26.743766 5.975947-53.75153 25.975773 0.575995 32.567715 5.967948 65.687426 5.967948 0 20.855818-0.111999 60.58347-13.359883 67.095413-0.103999 0.056-58.30349 8.02393-58.30349-19.311831zM586.711346 624.082379c3.967965-14.84787 21.935808-44.735609 29.863739-59.719477 24.327787 6.503943 35.37569 23.367796 59.719477 29.855739-6.503943 24.335787-23.367796 35.38369-29.855738 59.719477-24.343787-6.487943-35.39169-23.359796-59.727478-29.855739zM718.094197 403.132313c6.039947-25.911773 18.503838-38.255665 29.855738-59.719478 17.847844 9.447917 40.959642 25.487777 59.719478 29.855739-9.447917 17.839844-25.487777 40.951642-29.855739 59.719477-18.759836-4.375962-41.871634-20.415821-59.719477-29.855738zM783.789622 295.629253c3.007974-36.151684 16.071859-26.167771 23.879791-59.719477 36.159684 3.007974 26.175771 16.071859 59.719477 23.887791-2.815975 33.847704-16.959852 33.783704-23.887791 59.719477-36.151684-3.007974-26.175771-16.063859-59.711477-23.887791zM849.477047 182.166246c5.655951-24.263788 17.831844-41.767635 29.855739-59.719477 18.751836 9.919913 34.2477 19.543829 53.75153 29.855738-1.855984 22.279805-19.583829 44.383612-29.855739 59.727478-20.647819-10.919904-34.639697-17.063851-53.75153-29.863739zM795.725517 68.695239c0-30.271735 5.975948-32.527715 5.975948-65.687425 33.15171 0 35.41569 5.975948 65.687425 5.975947 0 49.951563-3.559969 36.751678-5.967947 65.687426-33.14371 0-39.599654-5.343953-65.695426-5.975948zM652.406771 510.619372c10.911905-20.639819 17.055851-34.631697 29.855739-53.74353 25.903773 6.031947 38.255665 18.503838 59.719478 29.847739-9.919913 18.751836-19.543829 34.2477-29.855739 53.75153-22.287805-1.855984-44.383612-19.583829-59.719478-29.855739z"  horiz-adv-x="1024" />

    
    <glyph glyph-name="Trackplayback" unicode="&#59052;" d="M553.0624-20.0704c-13.99808 0.71168-27.61728 1.8944-40.48384 3.51232-11.12576 1.63328-21.1968-6.46144-22.56896-17.5616a20.19328 20.19328 0 0 1 17.57696-22.56896c13.80352-1.72032 28.39552-3.01056 43.35104-3.7888 0.37376-0.03072 0.73216-0.03072 1.08544-0.03072a20.224 20.224 0 0 1 1.03936 40.43776zM330.51648 667.136c-55.87456 0-101.19168-45.30688-101.19168-101.17632 0-55.8592 45.32224-101.18144 101.19168-101.18144 55.90528 0 101.1968 45.32224 101.1968 101.18144C431.70816 621.82912 386.42176 667.136 330.51648 667.136z m505.22112-130.92352a727.15264 727.15264 0 0 1-34.46784-26.2656 20.25472 20.25472 0 0 1-2.90816-28.47232 20.18816 20.18816 0 0 1 15.71328-7.42912c4.49536 0 9.01632 1.46432 12.7744 4.54144a661.89312 661.89312 0 0 0 32.50176 24.77056 20.17792 20.17792 0 0 1 4.62848 28.19072c-6.49216 9.10848-19.12832 11.1616-28.24192 4.66432z m-116.9664-151.97184a20.31104 20.31104 0 0 1 10.2912-2.79552 20.20864 20.20864 0 0 1 17.43872 9.91744c6.03136 10.22976 13.6448 20.79744 22.5792 31.45728a20.23424 20.23424 0 0 1-2.49856 28.50304 20.24448 20.24448 0 0 1-28.50304-2.51904c-10.36288-12.3392-19.25632-24.7552-26.43456-36.864a20.224 20.224 0 0 1 7.12704-27.6992z m236.26752 200.49408a20.24448 20.24448 0 0 1-27.25888 8.71936s-6.92224-3.57376-18.41664-10.11712a20.224 20.224 0 0 1-7.57248-27.58656 20.20352 20.20352 0 0 1 17.60768-10.17856c3.4048 0 6.8352 0.83968 10.00448 2.64192 10.39872 5.90336 16.73216 9.16992 16.91136 9.27744a20.224 20.224 0 0 1 8.72448 27.24352zM350.1312 80.30208a20.24448 20.24448 0 0 1-40.48384-0.3072c0-1.90976 0.26112-12.20096 5.6064-26.624a20.21376 20.21376 0 0 1 18.97984-13.2096c2.34496 0 4.72576 0.41984 7.04 1.29024a20.20864 20.20864 0 0 1 11.95008 25.984c-2.73408 7.33184-3.07712 12.39552-3.09248 12.86656z m84.84352-79.42144c-12.86656 4.59776-24.55552 9.97888-34.7648 15.9744-9.6512 5.70368-22.05696 2.41152-27.71456-7.17824a20.23424 20.23424 0 0 1 7.21408-27.69408c12.36992-7.23968 26.35776-13.69088 41.58976-19.17952 2.2528-0.78848 4.55168-1.16736 6.8352-1.16736a20.24448 20.24448 0 0 1 19.05664 13.38368 20.22912 20.22912 0 0 1-12.21632 25.86112z m386.65728 199.90016c-8.56064 11.21792-18.432 22.4768-29.37344 33.54112-7.81312 7.9616-20.62336 8.04864-28.61568 0.22016-7.97184-7.80288-8.04864-20.63872-0.19968-28.60032a318.13632 318.13632 0 0 0 26.05056-29.73184 20.21376 20.21376 0 0 1 28.3648-3.77856 20.19328 20.19328 0 0 1 3.77344 28.34944z m-36.82304-179.09248c-9.52832-6.6048-20.71552-12.55936-33.2288-17.69984a20.22912 20.22912 0 0 1 7.71072-38.94784 20.48 20.48 0 0 1 7.71072 1.52064c15.20128 6.28224 28.94848 13.64992 40.8576 21.88288 9.18528 6.38464 11.48416 18.9952 5.10976 28.14464a20.25472 20.25472 0 0 1-28.16 5.09952z m53.82144 111.89248a20.20864 20.20864 0 0 1-15.70816-23.90528c1.37216-6.528 2.048-12.96384 2.048-19.05664 0-4.97664-0.46592-9.9584-1.3824-14.72a20.14208 20.14208 0 0 1 16.02048-23.66976c1.29024-0.2816 2.59584-0.38912 3.86048-0.38912a20.21376 20.21376 0 0 1 19.84512 16.36864c1.42336 7.3216 2.1248 14.82752 2.1248 22.41024a135.0656 135.0656 0 0 1-2.87232 27.25888c-2.29888 10.97216-13.08672 17.92-23.936 15.70304z m-163.47136-149.2992c-12.88704-1.82784-26.44992-3.2-40.33024-4.09088a20.224 20.224 0 0 1-18.88256-21.48864 20.21376 20.21376 0 0 1 20.1728-18.92864c0.4352 0 0.88576 0.03072 1.32096 0.03072 14.90432 0.99328 29.5168 2.45248 43.41248 4.44416a20.24448 20.24448 0 0 1 17.18784 22.86592c-1.57184 11.04384-11.8016 18.83136-22.88128 17.16736zM330.51648 828.80512c-145.30048 0-263.09632-118.52288-263.09632-264.74496 0-215.10144 263.09632-422.85056 263.09632-422.85056s263.1168 207.74912 263.1168 422.85056c-0.00512 146.22208-117.79584 264.74496-263.1168 264.74496z m0-404.71552c-78.23872 0-141.66528 63.36512-141.66528 141.52704 0 78.17728 63.42656 141.52704 141.66528 141.52704 78.25408 0 141.68064-63.34976 141.68064-141.52704 0-78.16192-63.42656-141.52704-141.68064-141.52704z m408.4736-132.22912c-5.78048 10.34752-9.3184 21.10464-10.49088 31.97952-1.1776 11.10016-10.92608 19.11808-22.272 17.94048a20.21376 20.21376 0 0 1-17.9712-22.26176c1.76128-16.34816 6.93248-32.29696 15.4368-47.43168a20.18816 20.18816 0 0 1 27.52512-7.7568 20.18304 20.18304 0 0 1 7.77216 27.53024z"  horiz-adv-x="1024" />

    
    <glyph glyph-name="downarrow" unicode="&#58900;" d="M891.904 808.448l-426.666667-840.704L32.426667 806.912z"  horiz-adv-x="1024" />

    
    <glyph glyph-name="home" unicode="&#58882;" d="M90.965 376.874s-0.617 40.016 0 39.401c0.615 38.783 336.272 375.941 413.694 374.293 77.422-1.645 413.694-334.279 413.694-374.293-0.617-0.615 0-39.401 0-39.401h39.399s0.615 40.016 0 39.401c1.231 59.716-345.645 414.742-453.093 413.692-116.074-1.131-453.71-353.362-453.093-413.692-0.617 0 0-39.401 0-39.401h39.399zM228.863 416.275v-39.401s40.3-315.457 118.198-354.595c78.182-57.45 239.076-58.483 315.193 0 76.506 38.704 118.2 354.595 118.2 354.595v39.401h39.399v-39.401s-40.761-358.568-157.6-393.994c-98.731-59.115-235.563-57.05-334.893 0-81.175 39.084-137.898 393.994-137.898 393.994v39.401h39.401z"  horiz-adv-x="1024" />

    
    <glyph glyph-name="close2" unicode="&#58904;" d="M281.6 179.944727L716.078545 614.4l24.669091-24.692364L306.315636 155.229091zM283.252364 589.707636l24.692363 24.669091L742.4 179.944727l-24.692364-24.669091z"  horiz-adv-x="1024" />

    
    <glyph glyph-name="battery" unicode="&#58941;" d="M733.866 8.534H290.134a17.072 17.072 0 0 1-17.066-17.066 17.072 17.072 0 0 1 17.066-17.066h443.734a17.06 17.06 0 0 1 17.066 17.066 17.062 17.062 0 0 1-17.068 17.066zM733.866 110.934H290.134c-9.42 0-17.066-7.646-17.066-17.066s7.646-17.066 17.066-17.066h443.734c9.438 0 17.066 7.646 17.066 17.066s-7.63 17.066-17.068 17.066zM768 793.6H392.534c-9.42 0-17.066-7.646-17.066-17.066s7.646-17.066 17.066-17.066H768c28.228 0 51.2-22.972 51.2-51.2v-750.934c0-28.228-22.972-51.2-51.2-51.2H256c-28.228 0-51.2 22.972-51.2 51.2V708.266c0 28.228 22.972 51.2 51.2 51.2h68.266a17.072 17.072 0 0 1 17.066 17.066V844.8c0 9.404 7.662 17.066 17.066 17.066h307.2c9.42 0 17.066-7.662 17.066-17.066a17.06 17.06 0 0 1 17.066-17.066 17.06 17.06 0 0 1 17.066 17.066c0 28.228-22.972 51.2-51.2 51.2H358.4c-28.228 0-51.2-22.972-51.2-51.2v-51.2H256c-47.052 0-85.334-38.28-85.334-85.334v-750.934C170.666-89.72 208.948-128 256-128h512c47.052 0 85.334 38.28 85.334 85.334V708.266C853.334 755.32 815.052 793.6 768 793.6zM569.976 689.8a17.13 17.13 0 0 1-20.668-5.752l-170.666-238.934a17.084 17.084 0 0 1-1.28-17.716 17.056 17.056 0 0 1 15.172-9.268h80.538l-28.826-115.32a17.072 17.072 0 0 1 8.824-19.37 17.056 17.056 0 0 1 7.732-1.844 17.06 17.06 0 0 1 13.108 6.144l170.684 204.8a17.052 17.052 0 0 1 2.322 18.158 17.056 17.056 0 0 1-15.446 9.83h-81.578l30.038 150.254a17.072 17.072 0 0 1-9.954 19.018z m25.054-203.4l-99.584-119.484 16.042 64.136a17.016 17.016 0 0 1-3.106 14.644 17.036 17.036 0 0 1-13.448 6.57h-69.24l105.164 147.234-18.534-92.69a17.06 17.06 0 0 1 3.55-14.166 17 17 0 0 1 13.192-6.246h65.964zM273.066 196.266a17.072 17.072 0 0 1 17.066-17.066h443.734c9.438 0 17.066 7.646 17.066 17.066s-7.628 17.066-17.066 17.066H290.134c-9.422 0.002-17.068-7.644-17.068-17.066z"  horiz-adv-x="1024" />

    
    <glyph glyph-name="iconguiji" unicode="&#58886;" d="M988.602469 43.614815a136.262434 136.262434 0 0 0-136.262434-136.262434H171.524515a136.217284 136.217284 0 0 0-136.172134 136.262434V724.475485A136.172134 136.172134 0 0 0 171.524515 860.647619h680.86067a136.217284 136.217284 0 0 0 136.262434-136.172134v-680.86067zM779.242328 3.566843H453.756614c-194.009171 0-193.647972 297.447619 0 297.447619h94.137566c63.209877 0 60.816931 94.679365 0 94.679365H245.118871a30.97284 30.97284 0 0 0-28.850793 30.385891V516.424691a124.839506 124.839506 0 0 0-58.694886 33.275485l-2.031746 1.670547a126.871252 126.871252 0 0 0 1.986596 176.761905l1.715697 1.489947c49.077954 46.865608 128.22575 46.368959 176.084656-1.489947 49.123104-49.258554 49.123104-129.805996 0-178.342152v-0.0903l-0.406349-0.586948a124.252557 124.252557 0 0 0-58.243386-32.733687v-84.430335h271.26067c105.289594 0 112.919929-166.919224 0-166.919224h-94.137566c-146.330864 0-146.692063-225.02716 0-225.02716h293.880776v84.475485a126.148854 126.148854 0 0 0-59.281835 32.914286v0.451499l-0.586948 1.038448a124.884656 124.884656 0 0 0-36.481129 88.042328c0 34.900882 14.357672 66.280071 37.022928 89.216225a126.329453 126.329453 0 0 0 178.387301-0.496649V336.141093a127.322751 127.322751 0 0 0 0-178.7485 127.86455 127.86455 0 0 0-59.281834-32.914286V33.636684a30.47619 30.47619 0 0 0-28.218695-30.069841zM293.248677 592.050794a66.821869 66.821869 0 0 1 0 93.099118 66.64127 66.64127 0 0 1-92.15097 1.580247l-1.173897-1.580247a66.280071 66.280071 0 0 1-0.857849-92.01552l0.857849-1.083598a66.144621 66.144621 0 0 1 93.324867 0z m530.827513-391.720635c11.919577 12.009877 19.279012 28.489594 19.279013 46.639859 0 17.743915-7.359436 34.900882-19.279013 46.368959v0.22575c-25.238801 25.55485-67.815168 25.193651-93.234567-0.22575a64.880423 64.880423 0 0 1-19.098413-46.368959c0-18.150265 7.133686-34.675132 19.008113-46.639859h0.0903a66.37037 66.37037 0 0 1 93.234567 0z"  horiz-adv-x="1024" />

    
    <glyph glyph-name="battery1" unicode="&#59488;" d="M853.333333 708.266667v-750.933334c0-47.0528-38.280533-85.333333-85.333333-85.333333H256c-47.0528 0-85.333333 38.280533-85.333333 85.333333V708.266667c0 47.0528 38.280533 85.333333 85.333333 85.333333h51.2V844.8c0 28.228267 22.971733 51.2 51.2 51.2h307.2c28.228267 0 51.2-22.971733 51.2-51.2a17.066667 17.066667 0 1 0-34.133333 0c0 9.403733-7.645867 17.066667-17.066667 17.066667H358.4c-9.403733 0-17.066667-7.662933-17.066667-17.066667v-68.266667a17.066667 17.066667 0 0 0-17.066666-17.066666H256c-28.228267 0-51.2-22.971733-51.2-51.2v-750.933334c0-28.228267 22.971733-51.2 51.2-51.2h512c28.228267 0 51.2 22.971733 51.2 51.2V708.266667c0 28.228267-22.971733 51.2-51.2 51.2H392.533333a17.066667 17.066667 0 0 0 0 34.133333h375.466667c47.0528 0 85.333333-38.280533 85.333333-85.333333z m-273.408-37.4784L549.888 520.533333H631.466667a17.066667 17.066667 0 0 0 13.124266-27.989333l-170.683733-204.8a17.066667 17.066667 0 0 0-29.661867 15.069867L473.070933 418.133333H392.533333a17.066667 17.066667 0 0 0-13.892266 26.9824l170.666666 238.933334a17.066667 17.066667 0 0 0 30.6176-13.2608zM529.066667 486.4a17.066667 17.066667 0 0 0-16.7424 20.411733l18.5344 92.689067L425.693867 452.266667H494.933333a17.032533 17.032533 0 0 0 16.554667-21.213867l-16.042667-64.136533L595.029333 486.4H529.066667z m204.8-477.866667H290.133333a17.066667 17.066667 0 0 1 0-34.133333h443.733334a17.066667 17.066667 0 1 1 0 34.133333z m0 102.4H290.133333a17.066667 17.066667 0 0 1 0-34.133333h443.733334a17.066667 17.066667 0 1 1 0 34.133333zM273.066667 196.266667a17.066667 17.066667 0 0 1 17.066666-17.066667h443.733334a17.066667 17.066667 0 1 1 0 34.133333H290.133333a17.066667 17.066667 0 0 1-17.066666-17.066666z"  horiz-adv-x="1024" />

    
    <glyph glyph-name="list" unicode="&#58901;" d="M419.037 608.047h413.124c17.673 0 32 14.327 32 32s-14.327 32-32 32H419.037c-17.673 0-32-14.327-32-32s14.327-32 32-32z m-0.009-255.217h411.608c17.673 0 32 14.327 32 32s-14.327 32-32 32H419.028c-17.673 0-32-14.327-32-32s14.327-32 32-32z m413.133-192.632H419.037c-17.673 0-32-14.327-32-32s14.327-32 32-32h413.124c17.673 0 32 14.327 32 32s-14.327 32-32 32zM192.037 640.047a64 64 0 1 1 128 0 64 64 0 1 1-128 0z m0-254.834a64 64 0 1 1 128 0 64 64 0 1 1-128 0z m0-256.834a64 64 0 1 1 128 0 64 64 0 1 1-128 0z"  horiz-adv-x="1024" />

    
    <glyph glyph-name="right" unicode="&#58923;" d="M407.272727 39.563636l328.145455 337.454546c6.981818 4.654545 6.981818 13.963636 0 20.945454L414.254545 728.436364c-4.654545 6.981818-18.618182 9.309091-27.927272 0-11.636364-9.309091-6.981818-20.945455-2.327273-27.927273l304.872727-314.181818-314.181818-323.490909c-4.654545-4.654545-2.327273-16.290909 6.981818-23.272728s20.945455-4.654545 25.6 0z"  horiz-adv-x="1024" />

    
    <glyph glyph-name="DevicesNetwork_pr" unicode="&#59704;" d="M256 128h512V640H256v-512z m42.666667 469.333333h426.666666v-426.666666H298.666667V597.333333zM981.333333 362.666667c12.8 0 21.333333 8.533333 21.333334 21.333333s-8.533333 21.333333-21.333334 21.333333h-106.666666v170.666667h106.666666c12.8 0 21.333333 8.533333 21.333334 21.333333s-8.533333 21.333333-21.333334 21.333334h-106.666666v42.666666c0 46.933333-38.4 85.333333-85.333334 85.333334h-42.666666V853.333333c0 12.8-8.533333 21.333333-21.333334 21.333334s-21.333333-8.533333-21.333333-21.333334v-106.666666h-170.666667V853.333333c0 12.8-8.533333 21.333333-21.333333 21.333334s-21.333333-8.533333-21.333333-21.333334v-106.666666h-170.666667V853.333333c0 12.8-8.533333 21.333333-21.333333 21.333334s-21.333333-8.533333-21.333334-21.333334v-106.666666h-42.666666c-46.933333 0-85.333333-38.4-85.333334-85.333334v-42.666666H42.666667c-12.8 0-21.333333-8.533333-21.333334-21.333334s8.533333-21.333333 21.333334-21.333333h106.666666v-170.666667H42.666667c-12.8 0-21.333333-8.533333-21.333334-21.333333s8.533333-21.333333 21.333334-21.333333h106.666666v-170.666667H42.666667c-12.8 0-21.333333-8.533333-21.333334-21.333333s8.533333-21.333333 21.333334-21.333334h106.666666v-42.666666c0-46.933333 38.4-85.333333 85.333334-85.333334h42.666666v-106.666666c0-12.8 8.533333-21.333333 21.333334-21.333334s21.333333 8.533333 21.333333 21.333334v106.666666h170.666667v-106.666666c0-12.8 8.533333-21.333333 21.333333-21.333334s21.333333 8.533333 21.333333 21.333334v106.666666h170.666667v-106.666666c0-12.8 8.533333-21.333333 21.333333-21.333334s21.333333 8.533333 21.333334 21.333334v106.666666h42.666666c46.933333 0 85.333333 38.4 85.333334 85.333334v42.666666h106.666666c12.8 0 21.333333 8.533333 21.333334 21.333334s-8.533333 21.333333-21.333334 21.333333h-106.666666v170.666667h106.666666z m-149.333333-256c0-23.466667-19.2-42.666667-42.666667-42.666667H234.666667c-23.466667 0-42.666667 19.2-42.666667 42.666667V661.333333c0 23.466667 19.2 42.666667 42.666667 42.666667h554.666666c23.466667 0 42.666667-19.2 42.666667-42.666667v-554.666666zM362.666667 554.666667c-12.8 0-21.333333-8.533333-21.333334-21.333334v-85.333333c0-12.8 8.533333-21.333333 21.333334-21.333333s21.333333 8.533333 21.333333 21.333333v85.333333c0 12.8-8.533333 21.333333-21.333333 21.333334zM469.333333 533.333333c0 12.8-8.533333 21.333333-21.333333 21.333334s-21.333333-8.533333-21.333333-21.333334v-85.333333c0-12.8 8.533333-21.333333 21.333333-21.333333s21.333333 8.533333 21.333333 21.333333v85.333333zM533.333333 426.666667c12.8 0 21.333333 8.533333 21.333334 21.333333v85.333333c0 12.8-8.533333 21.333333-21.333334 21.333334s-21.333333-8.533333-21.333333-21.333334v-85.333333c0-12.8 8.533333-21.333333 21.333333-21.333333zM469.333333 213.333333h213.333334v128H469.333333v-128z m42.666667 85.333334h128v-42.666667h-128v42.666667z"  horiz-adv-x="1024" />

    
    <glyph glyph-name="alert1" unicode="&#59331;" d="M193 100c0-17.7 14.3-32 32-32h574c17.7 0 32 14.3 32 32V333c0 176.2-142.8 319-319 319S193 509.2 193 333v-233z m72 233c0 136.4 110.6 247 247 247s247-110.6 247-247v-193H404V311c0 5.5-4.5 10-10 10h-44c-5.5 0-10-4.5-10-10v-171h-75V333zM216.9 585.5l39.6 39.6c3.1 3.1 3.1 8.2 0 11.3l-67.9 67.9c-3.1 3.1-8.2 3.1-11.3 0l-39.6-39.6c-3.1-3.1-3.1-8.2 0-11.3l67.9-67.9c3.1-3.1 8.1-3.1 11.3 0zM886.5 664.7l-39.6 39.6c-3.1 3.1-8.2 3.1-11.3 0l-67.9-67.9c-3.1-3.1-3.1-8.2 0-11.3l39.6-39.6c3.1-3.1 8.2-3.1 11.3 0l67.9 67.9c3.1 3.2 3.1 8.2 0 11.3zM832 4H192c-17.7 0-32-14.3-32-32v-24c0-4.4 3.6-8 8-8h688c4.4 0 8 3.6 8 8v24c0 17.7-14.3 32-32 32zM484 716h56c4.4 0 8 3.6 8 8V820c0 4.4-3.6 8-8 8h-56c-4.4 0-8-3.6-8-8v-96c0-4.4 3.6-8 8-8z"  horiz-adv-x="1024" />

    
    <glyph glyph-name="back1" unicode="&#58908;" d="M363.84 423.021c-26.901-24.38-26.538-64.507 0.89-88.507l309.222-270.569c8.867-7.759 22.344-6.86 30.103 2.007s6.86 22.344-2.007 30.103L392.827 366.624c-8.231 7.202-8.325 17.54-0.335 24.782l309.834 280.786c8.73 7.912 9.394 21.403 1.482 30.134-7.912 8.73-21.403 9.394-30.134 1.482L363.841 423.02z"  horiz-adv-x="1024" />

    
    <glyph glyph-name="Monitor-" unicode="&#58993;" d="M512.512-1.024c-249.856 0-450.56 200.704-450.56 446.464s200.704 450.56 450.56 450.56 450.56-200.704 450.56-446.464-200.704-450.56-450.56-450.56z m0 577.536c-143.36 0-258.048-98.304-258.048-225.28 0-122.88 114.688-225.28 258.048-225.28s258.048 98.304 258.048 225.28c0 122.88-114.688 225.28-258.048 225.28z m0-319.488c-36.864 0-65.536 28.672-65.536 65.536 0 36.864 28.672 65.536 65.536 65.536 36.864 0 65.536-28.672 65.536-65.536 0-36.864-28.672-65.536-65.536-65.536z m-249.856-258.048c73.728-40.96 159.744-65.536 249.856-65.536s176.128 24.576 249.856 65.536h73.728l65.536-126.976h-778.24l65.536 126.976h73.728z"  horiz-adv-x="1025" />

    
    <glyph glyph-name="monitor" unicode="&#58975;" d="M923.64 558.44a446.68 446.68 0 1 1-606.45-575.89 36 36 0 1 1 31.45 64.77 374 374 0 0 0-75.17 48.35L301 123.22a36 36 0 1 1-50.91 50.91l-27.48-27.48a371.83 371.83 0 0 0-83.57 202.54h51a36 36 0 0 1 0 72h-50.87a371.1 371.1 0 0 0 84 202l26.93-26.93a36 36 0 1 1 50.9 50.9L274.15 674a371.1 371.1 0 0 0 201.93 83.5v-50.3a36 36 0 1 1 72 0v50.3A371.1 371.1 0 0 0 750 674l-26.15-26.15A36 36 0 0 1 774.78 597L801 623.18a371.1 371.1 0 0 0 84-202h-49.84a36 36 0 1 1 0-72h49.93a373.36 373.36 0 0 0-83.57-202.53l-26.75 26.75a36 36 0 1 1-50.91-50.91l26.83-26.83a371.9 371.9 0 0 0-98.88-58.86 36 36 0 1 1 26.87-66.8 444.37 444.37 0 0 1 153.81 103.35c3.21 3.31 6.41 6.71 9.52 10.11a447.14 447.14 0 0 1 81.63 475zM686.46 513.54a36 36 0 1 1-50.91 50.91l-107.3-107.3A71.95 71.95 0 1 1 580.88 408z"  horiz-adv-x="1024" />

    
    <glyph glyph-name="battery2" unicode="&#58951;" d="M785.368 194.024A40 40 0 0 0 744 234V655.904C744 700.144 708.144 736 663.904 736h-51.808a40.096 40.096 0 0 0-40.096 40.096v39.808a0.096 0.096 0 0 1-0.096 0.096H452.096a0.096 0.096 0 0 1-0.096-0.096v-39.808A40.096 40.096 0 0 0 411.904 736h-51.808C315.856 736 280 700.144 280 655.904v-623.808C280-12.144 315.856-48 360.096-48h303.808c44.44 0 79.424 36.184 80.096 80.616a40 40 0 0 0 37.896 39.328c23.72 1.232 42.4-18.336 42.088-42.08C822.84-57.384 751.504-128 664-128H360.096C271.68-128 200-56.32 200 32.096V655.904C200 744.32 271.68 816 360.096 816h11.808a0.096 0.096 0 0 1 0.096 0.096V827.336A68.664 68.664 0 0 0 440.664 896h142.672A68.664 68.664 0 0 0 652 827.336v-11.24c0-0.056 0.04-0.096 0.096-0.096h11.808C752.32 816 824 744.32 824 655.904v-420.856c0-21.744-16.904-40.296-38.632-41.024zM432 136c0.008 1.52 0.384 3.192 1.224 5.016l53.704 148.856a0.096 0.096 0 0 1-0.088 0.128H406.624c-30.952 0-50.496 32.816-35.44 59.664l92.136 164.288a0.096 0.096 0 0 0 0.088 0.048h141.744c0.08 0 0.12-0.08 0.08-0.144l-73.008-117.712a0.096 0.096 0 0 1 0.08-0.144h92.464c25.16 0 38.392-29.632 22-48.576L457.944 131.4c-3.424-3.408-8.608-5.376-13.52-5.4-7-0.024-12.456 3.712-12.424 10z"  horiz-adv-x="1024" />

    
    <glyph glyph-name="device" unicode="&#58881;" d="M284.16 211.84a26.55 26.55 0 1 1 26.55 26.54 26.55 26.55 0 0 1-26.55-26.54z m0 0M390.33 211.84a26.54 26.54 0 1 1 26.54 26.54 26.54 26.54 0 0 1-26.54-26.54z m0 0M602.65 238.57a17.51 17.51 0 1 1 17.51 17.5 17.51 17.51 0 0 1-17.51-17.5z m0 0M658.23 238.57a17.5 17.5 0 1 1 17.5 17.5 17.5 17.5 0 0 1-17.5-17.5z m0 0M713.8 238.57a17.51 17.51 0 1 1 17.5 17.5 17.51 17.51 0 0 1-17.5-17.5z m0 0M602.65 183a17.51 17.51 0 1 1 17.51 17.5 17.5 17.5 0 0 1-17.51-17.5z m0 0M658.23 183a17.5 17.5 0 1 1 17.5 17.5 17.49 17.49 0 0 1-17.5-17.5z m0 0M713.8 183a17.51 17.51 0 1 1 17.5 17.5 17.5 17.5 0 0 1-17.5-17.5z m0 0M602.65 127.42a17.51 17.51 0 1 1 17.51 17.51 17.5 17.5 0 0 1-17.51-17.51z m0 0M658.23 127.42a17.5 17.5 0 1 1 17.5 17.51 17.49 17.49 0 0 1-17.5-17.51z m0 0M713.8 127.42a17.51 17.51 0 1 1 17.5 17.51 17.5 17.5 0 0 1-17.5-17.51z m0 0M512.05 624a33.33 33.33 0 1 1 33.33-33.33A33.43 33.43 0 0 1 512.05 624z m-49.51 27.14a12.79 12.79 0 0 1-21.9 9 99.57 99.57 0 0 1-28.57-69.51 97.63 97.63 0 0 1 28.57-69 12.46 12.46 0 0 1 17.61 17.62c-28.09 28.09-28.09 74.27 0 102.83a11.73 11.73 0 0 1 4.29 9z m-83.79-60.47a130.32 130.32 0 0 0 38.56 92.84 12.46 12.46 0 0 1-17.62 17.62 155.74 155.74 0 0 1-0.47-220.91 12.46 12.46 0 0 1 17.61 17.62 131.87 131.87 0 0 0-38.08 92.83z m204.24 69a12.46 12.46 0 0 1-17.62-17.62 72 72 0 0 0 21.43-51.42 72.81 72.81 0 0 0-21.43-51.41c-3.33-3.34-4.28-7.62-3.33-12.38 1-4.29 4.76-7.62 9.05-9a13.29 13.29 0 0 1 12.37 3.34 97.69 97.69 0 0 1-0.46 138.55z m76.17-10a151.7 151.7 0 0 1-34.28 51.89A12.45 12.45 0 0 1 607.27 684c24.28-25.23 38.09-58.08 38.09-93.32a130.32 130.32 0 0 0-38.57-92.83c-3.33-3.34-4.28-7.62-3.33-12.38 0.95-4.29 4.76-7.62 9-9.05a13.29 13.29 0 0 1 12.37 3.34 158.15 158.15 0 0 1 34.28 170z m0 0M758.71 832.1h-493.5a61.56 61.56 0 0 1-61.46-61.5v-773.2a61.56 61.56 0 0 1 61.46-61.5h493.5a61.61 61.61 0 0 1 61.54 61.5V770.6a61.6 61.6 0 0 1-61.54 61.5z m-493.5-40.73h493.5a20.82 20.82 0 0 0 20.8-20.77v-380.69h-535V770.6a20.77 20.77 0 0 0 20.7 20.77z m493.5-814.74h-493.5a20.77 20.77 0 0 0-20.72 20.77V349.17h535V-2.6a20.82 20.82 0 0 0-20.78-20.77z"  horiz-adv-x="1024" />

    
    <glyph glyph-name="Z1" unicode="&#59068;" d="M330.252646 572.973888c0 5.781228-5.058574 10.839802-10.839802 10.839803H246.424841c-5.781228 0-10.839802-5.058574-10.839802-10.839803v-147.421312c0-5.781228 3.613267-7.226535 7.949188-3.613268l78.046578 80.214538c4.335921 3.613267 7.949188 12.285109 7.949188 18.066337v52.753705zM547.771348 661.137615c-7.226535 6.503881-18.788991 6.503881-25.292872 0l-339.647142-347.596331c-7.226535-6.503881-5.058574-11.562456 4.335921-11.562455h696.637967c9.394495 0 11.562456 5.058574 4.335921 11.562455L547.771348 661.137615zM269.549753 303.424135v-265.213832c0-7.949188 6.503881-14.45307 14.45307-14.453069h46.972477c7.949188 0 14.45307 6.503881 14.45307 14.453069v127.187015c0 7.949188 6.503881 14.45307 14.45307 14.45307h87.441072c7.949188 0 14.45307-6.503881 14.45307-14.45307v-127.187015c0-7.949188 6.503881-14.45307 14.45307-14.453069h307.850388c7.949188 0 14.45307 6.503881 14.45307 14.453069V303.424135H269.549753z m469.002117-156.815808c0-7.949188-6.503881-14.45307-14.45307-14.453069H595.466478c-7.949188 0-15.175723 6.503881-15.175723 14.453069V236.217361c0 7.949188 6.503881 14.45307 15.175723 14.453069h128.632322c7.949188 0 14.45307-6.503881 14.45307-14.453069v-89.609034z"  horiz-adv-x="1133" />

    
    <glyph glyph-name="index" unicode="&#59054;" d="M1011.72736 473.216l-88.96 77.312-71.36 62.08L535.43936 887.168a35.712 35.712 0 0 1-10.432 6.336L521.99936 894.592 518.60736 895.36a35.776 35.776 0 0 1-20.608-2.24l-2.56-1.216a57.6 57.6 0 0 1-5.376-3.456A743649.856 743649.856 0 0 1 89.61536 540.48L12.30336 473.28a35.712 35.712 0 1 1 46.848-53.952L512.01536 812.928l452.864-393.6a35.52 35.52 0 0 1 50.368 3.52 35.712 35.712 0 0 1-3.52 50.368z m-118.656-56.64a35.712 35.712 0 0 1-35.776-35.712v-354.88c0-44.736-30.72-82.56-67.2-82.56h-556.16c-36.48 0-67.2 37.824-67.2 82.56V380.864a35.712 35.712 0 1 1-71.488 0v-354.88c0-84.864 62.272-153.984 138.752-153.984h556.032c76.48 0 138.752 69.12 138.752 153.984V380.864a35.712 35.712 0 0 1-35.712 35.712z"  horiz-adv-x="1024" />

    
    <glyph glyph-name="devices" unicode="&#58899;" d="M724.1 654.7H299.9c-32.3 0-58.6-26.3-58.6-58.5V172c0-32.3 26.3-58.5 58.6-58.5h424.2c32.3 0 58.5 26.3 58.5 58.5V596.1c0.1 32.3-26.2 58.6-58.5 58.6z m8.6-482.8c0-4.7-3.8-8.5-8.5-8.5H299.9c-4.7 0-8.6 3.8-8.6 8.5V596.1c0 4.7 3.8 8.5 8.6 8.5h424.2c4.7 0 8.5-3.8 8.5-8.5v-424.2zM612.5 501.1h-201c-26.1 0-47.3-22.6-47.3-50.3v-164.4c0-27.7 21.2-50.3 47.3-50.3h200.9c26.1 0 47.4 22.6 47.4 50.3V450.8c0 27.8-21.2 50.3-47.3 50.3z m-2.7-214.6v-0.3H414.2V450.8v0.3h195.6V286.5zM671.2 66.7h50v-102.4h-50zM671.2 803.7h50v-102.4h-50zM548.4 66.7h50v-102.4h-50zM548.4 803.7h50v-102.4h-50zM425.6 66.7h50v-102.4h-50zM425.6 803.7h50v-102.4h-50zM302.8 66.7h50v-102.4h-50zM302.8 803.7h50v-102.4h-50zM829.3 593.2h102.4v-50H829.3zM829.3 470.4h102.4v-50H829.3zM829.3 347.6h102.4v-50H829.3zM829.3 224.8h102.4v-50H829.3zM92.3 593.2h102.4v-50H92.3zM92.3 470.4h102.4v-50H92.3zM92.3 347.6h102.4v-50H92.3zM92.3 224.8h102.4v-50H92.3z"  horiz-adv-x="1024" />

    
    <glyph glyph-name="Fence_A_px" unicode="&#60127;" d="M282.624 100.352H162.816c-6.144 0-10.24 4.096-10.24 10.24V568.32c0 2.048 1.024 4.096 2.048 6.144l60.416 83.968c2.048 3.072 5.12 4.096 8.192 4.096 3.072 0 6.144-2.048 8.192-4.096l59.392-83.968c1.024-2.048 2.048-4.096 2.048-6.144v-457.728c0-6.144-4.096-10.24-10.24-10.24z m-109.568 20.48h99.328V565.248l-49.152 69.632-50.176-69.632v-444.416zM451.584 244.736H282.624c-6.144 0-10.24 4.096-10.24 10.24s4.096 10.24 10.24 10.24h168.96c6.144 0 10.24-4.096 10.24-10.24s-4.096-10.24-10.24-10.24zM223.232 244.736c-3.072 0-5.12 1.024-7.168 3.072-1.024 1.024-2.048 2.048-2.048 3.072-1.024 1.024-1.024 2.048-1.024 4.096 0 3.072 1.024 5.12 3.072 7.168 3.072 3.072 7.168 4.096 11.264 2.048 1.024 0 2.048-1.024 3.072-2.048 2.048-2.048 3.072-5.12 3.072-7.168 0-1.024 0-3.072-1.024-4.096 0-1.024-1.024-2.048-2.048-3.072-2.048-2.048-4.096-3.072-7.168-3.072zM451.584 437.248H282.624c-6.144 0-10.24 4.096-10.24 10.24s4.096 10.24 10.24 10.24h168.96c6.144 0 10.24-4.096 10.24-10.24s-4.096-10.24-10.24-10.24zM741.376 244.736H573.44c-6.144 0-10.24 4.096-10.24 10.24s4.096 10.24 10.24 10.24h167.936c6.144 0 10.24-4.096 10.24-10.24s-4.096-10.24-10.24-10.24zM741.376 437.248H573.44c-6.144 0-10.24 4.096-10.24 10.24s4.096 10.24 10.24 10.24h167.936c6.144 0 10.24-4.096 10.24-10.24s-4.096-10.24-10.24-10.24zM223.232 437.248c-3.072 0-5.12 1.024-7.168 3.072-2.048 2.048-3.072 4.096-3.072 7.168 0 1.024 0 3.072 1.024 4.096 0 1.024 1.024 2.048 2.048 3.072 1.024 1.024 2.048 2.048 3.072 2.048 2.048 1.024 4.096 1.024 6.144 1.024 1.024 0 1.024 0 2.048-1.024 1.024 0 1.024 0 2.048-1.024 1.024 0 1.024-1.024 2.048-1.024 1.024-1.024 2.048-2.048 2.048-3.072 1.024-1.024 1.024-2.048 1.024-4.096s0-3.072-1.024-4.096c0-1.024-1.024-2.048-2.048-3.072 0 0-1.024-1.024-2.048-1.024 0 0-1.024-1.024-2.048-1.024s-1.024-1.024-2.048-1.024h-2.048zM572.416 100.352H451.584c-6.144 0-10.24 4.096-10.24 10.24V568.32c0 2.048 1.024 4.096 2.048 6.144l60.416 83.968c4.096 5.12 12.288 5.12 16.384 0l60.416-83.968c1.024-2.048 2.048-4.096 2.048-6.144v-457.728c0-6.144-4.096-10.24-10.24-10.24z m-110.592 20.48h100.352V565.248L512 634.88l-50.176-69.632v-444.416zM512 244.736c-3.072 0-5.12 1.024-7.168 3.072-1.024 1.024-2.048 2.048-2.048 3.072 0 1.024-1.024 2.048-1.024 4.096 0 3.072 1.024 5.12 3.072 7.168 4.096 4.096 10.24 4.096 14.336 0 2.048-2.048 3.072-5.12 3.072-7.168 0-1.024 0-3.072-1.024-4.096s-1.024-2.048-2.048-3.072c-2.048-2.048-4.096-3.072-7.168-3.072zM512 437.248h-2.048c-1.024 0-1.024 0-2.048 1.024-1.024 0-1.024 0-2.048 1.024-1.024 0-1.024 1.024-1.024 1.024-1.024 1.024-2.048 2.048-2.048 3.072 0 1.024-1.024 2.048-1.024 4.096s0 3.072 1.024 4.096c1.024 1.024 1.024 2.048 2.048 3.072l1.024 1.024c1.024 0 1.024 1.024 2.048 1.024s1.024 1.024 2.048 1.024c3.072 1.024 7.168 0 9.216-3.072 1.024-1.024 2.048-2.048 2.048-3.072 0-1.024 1.024-2.048 1.024-4.096s0-3.072-1.024-4.096c0-1.024-1.024-2.048-2.048-3.072-2.048-2.048-4.096-3.072-7.168-3.072zM861.184 100.352H741.376c-6.144 0-10.24 4.096-10.24 10.24V568.32c0 2.048 1.024 4.096 2.048 6.144l59.392 83.968c2.048 3.072 5.12 4.096 8.192 4.096 3.072 0 6.144-2.048 8.192-4.096l60.416-83.968c1.024-2.048 2.048-4.096 2.048-6.144v-457.728c0-6.144-4.096-10.24-10.24-10.24z m-109.568 20.48h99.328V565.248l-50.176 69.632-49.152-69.632v-444.416zM800.768 244.736c-1.024 0-3.072 0-4.096 1.024-1.024 0-2.048 1.024-3.072 2.048-2.048 2.048-3.072 4.096-3.072 7.168 0 1.024 0 3.072 1.024 4.096 0 1.024 1.024 2.048 2.048 3.072 2.048 2.048 6.144 3.072 9.216 3.072 1.024 0 1.024 0 2.048-1.024 1.024 0 2.048-1.024 3.072-2.048 1.024-1.024 2.048-2.048 2.048-3.072 0-1.024 1.024-2.048 1.024-4.096 0-3.072-1.024-5.12-3.072-7.168-1.024-1.024-2.048-2.048-3.072-2.048s-3.072-1.024-4.096-1.024zM800.768 437.248c-3.072 0-5.12 1.024-7.168 3.072-2.048 2.048-3.072 4.096-3.072 7.168 0 3.072 1.024 5.12 3.072 7.168 4.096 4.096 10.24 4.096 14.336 0 2.048-2.048 3.072-5.12 3.072-7.168 0-3.072-1.024-5.12-3.072-7.168-2.048-2.048-4.096-3.072-7.168-3.072z"  horiz-adv-x="1024" />

    
    <glyph glyph-name="tracking" unicode="&#58932;" d="M412.672 141.824c29.184 44.032 97.28 154.112 97.28 227.328C509.952 490.496 412.16 588.8 291.84 588.8s-218.112-98.304-218.112-219.648c0-73.216 68.096-183.296 97.28-227.328C221.696 66.56 275.456 5.12 291.84 5.12s70.144 61.44 120.832 136.704zM466.432 368.64c0-42.496-33.792-118.784-90.112-203.264-23.04-34.816-48.128-68.096-69.632-91.648-4.608-5.632-10.24-11.264-15.36-16.384-4.608 4.608-10.24 10.24-15.36 16.384-23.04 26.112-47.616 58.88-69.632 91.648-55.808 82.944-90.112 160.768-90.112 203.264 0 97.28 78.336 176.64 175.104 176.64S466.432 465.92 466.432 368.64zM842.752 473.088l-177.664-82.944c-25.6-11.776-40.448-30.72-41.472-52.224-1.024-21.504 12.8-41.472 37.376-55.296l130.56-73.728c7.68-4.608 9.216-7.168 9.216-8.192 0-1.536-1.536-3.584-9.728-7.68l-460.8-237.056c-10.24-5.12-14.848-18.432-9.216-29.184 3.584-7.168 11.264-11.776 19.456-11.776 3.072 0 6.656 0.512 9.728 2.048l460.8 237.056c20.48 10.24 32.256 26.624 32.768 45.056 0.512 18.432-10.752 35.84-31.232 47.104l-130.048 73.216c-10.24 5.632-15.872 11.264-15.36 15.872s6.144 9.728 16.896 14.848l177.664 83.456c10.752 5.12 14.848 17.92 9.728 28.672-5.632 10.752-17.92 15.36-28.672 10.752zM291.328 461.824c-51.2 0-92.672-41.984-92.672-93.184s41.472-93.184 92.672-93.184S384 317.44 384 368.64s-41.472 93.184-92.672 93.184z m49.152-93.184c0-12.8-4.608-25.6-13.824-34.816-9.216-9.728-22.016-14.848-35.328-14.848-27.136 0-49.152 22.528-49.152 49.664s22.016 49.664 49.152 49.664c26.624 0 49.152-22.528 49.152-49.664zM812.544 510.976c26.112 0 128.512 131.072 128.512 201.216 0 71.168-57.856 129.024-128.512 129.024S684.032 783.36 684.032 712.192c0-69.12 104.448-201.216 128.512-201.216z m-84.992 201.728c0 47.616 38.4 86.016 85.504 86.016s85.504-38.4 85.504-86.016c0-20.992-18.432-60.928-47.104-102.4-12.288-17.92-26.624-34.816-37.888-46.592-11.776 11.776-25.6 28.672-37.888 46.592-29.696 40.448-48.128 80.896-48.128 102.4zM812.544 677.376c20.992 0 38.4 17.408 38.4 38.912s-17.408 38.912-38.4 38.912-38.4-17.92-38.4-38.912c0-21.504 17.408-38.912 38.4-38.912z"  horiz-adv-x="1024" />

    
    <glyph glyph-name="tracking_selected" unicode="&#58933;" d="M870.912 462.336c-5.12 10.752-17.408 14.848-28.16 10.24l-177.664-82.944c-25.6-11.776-40.448-30.72-41.472-52.224s12.8-41.472 37.376-55.296l130.56-73.728c7.68-4.608 9.216-7.168 9.216-8.192 0-1.536-1.536-3.584-9.728-7.68l-460.8-237.056c-10.24-5.12-14.848-18.432-9.216-29.184 3.584-7.168 11.264-11.776 19.456-11.776 3.072 0 6.656 0.512 9.728 2.048l460.8 237.056c20.48 10.24 32.256 26.624 32.768 45.056 0.512 18.432-10.752 35.84-31.232 47.104l-130.048 73.216c-10.24 5.632-15.872 11.264-15.36 15.872s6.144 9.728 16.896 14.848l177.664 83.456c10.24 6.144 14.848 18.944 9.216 29.184zM291.84 588.8c-120.32 0-218.112-98.304-218.112-219.648 0-73.216 68.096-183.296 97.28-227.328C221.696 66.56 275.456 5.12 291.84 5.12s70.144 61.44 120.832 136.704c29.184 44.032 97.28 154.112 97.28 227.328C509.952 490.496 412.16 588.8 291.84 588.8z m-0.512-313.344c-51.2 0-92.672 41.984-92.672 93.184s41.472 93.184 92.672 93.184S384 419.84 384 368.64s-41.472-93.184-92.672-93.184zM812.544 841.216c-70.656 0-128.512-57.856-128.512-129.024 0-69.12 104.448-201.216 128.512-201.216 26.112 0 128.512 131.072 128.512 201.216 0 71.168-57.856 129.024-128.512 129.024z m0-163.84c-20.992 0-38.4 17.408-38.4 38.912 0 20.992 17.408 38.912 38.4 38.912s38.4-17.408 38.4-38.912c0-21.504-17.408-38.912-38.4-38.912z"  horiz-adv-x="1024" />

    
    <glyph glyph-name="Bank" unicode="&#59004;" d="M942.08 35.84h-40.96v40.96c0 17.408-13.312 30.72-30.72 30.72h-49.152c5.12 49.152 8.192 100.352 8.192 153.6s-2.048 104.448-8.192 153.6h116.736c22.528 0 40.96 18.432 40.96 40.96 0 7.168-2.048 19.456-13.312 29.696l-1.024 1.024L558.08 831.488c-26.624 22.528-65.536 22.528-93.184 0L60.416 486.4c-8.192-7.168-13.312-17.408-13.312-27.648-1.024-10.24 3.072-21.504 9.216-28.672 7.168-9.216 19.456-14.336 30.72-14.336h116.736c-5.12-47.104-8.192-96.256-9.216-153.6-1.024-46.08 1.024-94.208 7.168-153.6H153.6c-17.408 0-30.72-13.312-30.72-30.72v-40.96H81.92c-17.408 0-30.72-13.312-30.72-30.72v-51.2c0-17.408 13.312-30.72 30.72-30.72h860.16c17.408 0 30.72 13.312 30.72 30.72v51.2c0 16.384-13.312 29.696-30.72 29.696zM87.04 455.68s1.024 0 1.024-1.024c0 0-1.024 0-1.024 1.024z m0 0L491.52 800.768c12.288 10.24 28.672 10.24 39.936 0L936.96 455.68H798.72c-18.432 0-43.008 1.024-73.728 3.072-51.2 3.072-122.88 7.168-212.992 7.168s-160.768-4.096-212.992-7.168c-30.72-2.048-55.296-3.072-73.728-3.072H87.04zM645.12 107.52V421.888c29.696-1.024 55.296-3.072 76.8-4.096 22.528-1.024 41.984-2.048 58.368-3.072 5.12-49.152 8.192-100.352 8.192-153.6s-3.072-104.448-8.192-153.6H645.12z m-403.456 0c-6.144 59.392-8.192 107.52-7.168 153.6 1.024 57.344 4.096 107.52 9.216 154.624 16.384 1.024 35.84 2.048 58.368 3.072s48.128 3.072 76.8 4.096V107.52H241.664zM419.84 423.936c27.648 1.024 58.368 1.024 92.16 1.024s64.512-1.024 92.16-1.024V107.52H419.84V423.936zM931.84-35.84H92.16v30.72h40.96c17.408 0 30.72 13.312 30.72 30.72v40.96h696.32v-40.96c0-17.408 13.312-30.72 30.72-30.72h40.96v-30.72z"  horiz-adv-x="1024" />

    
    <glyph glyph-name="Accountant" unicode="&#59005;" d="M973.824 147.456c-3.072 8.192-9.216 13.312-17.408 14.336l-107.52 8.192-40.96 99.328c-3.072 7.168-10.24 12.288-18.432 12.288s-15.36-5.12-18.432-12.288l-40.96-99.328-107.52-8.192c-8.192-1.024-15.36-6.144-17.408-14.336-3.072-8.192 0-16.384 6.144-21.504l81.92-70.656-24.576-104.448c-2.048-8.192 1.024-16.384 8.192-21.504 7.168-5.12 15.36-5.12 22.528-1.024l92.16 56.32 92.16-56.32c3.072-2.048 7.168-3.072 10.24-3.072 4.096 0 8.192 1.024 12.288 4.096 7.168 5.12 10.24 13.312 8.192 21.504l-24.576 104.448 81.92 70.656c2.048 5.12 5.12 14.336 2.048 21.504zM849.92 77.824c-6.144-5.12-8.192-12.288-6.144-20.48l16.384-68.608-61.44 36.864c-3.072 2.048-7.168 3.072-10.24 3.072s-7.168-1.024-10.24-3.072l-60.416-36.864 16.384 68.608c2.048 7.168-1.024 15.36-6.144 20.48l-54.272 47.104 70.656 5.12c8.192 1.024 14.336 5.12 17.408 12.288l27.648 65.536 27.648-65.536c3.072-7.168 9.216-12.288 17.408-12.288l70.656-5.12-55.296-47.104z m-197.632 440.32c16.384 29.696 15.36 43.008 13.312 48.128-1.024 3.072-4.096 7.168-13.312 11.264-9.216 4.096-14.336 13.312-12.288 22.528 12.288 71.68 4.096 124.928-23.552 157.696-26.624 30.72-70.656 46.08-133.12 46.08s-105.472-15.36-129.024-45.056c-25.6-32.768-29.696-86.016-13.312-157.696 2.048-10.24-3.072-20.48-12.288-23.552-13.312-5.12-15.36-11.264-16.384-13.312-2.048-5.12-3.072-18.432 12.288-47.104 9.216-17.408 23.552-35.84 36.864-53.248 39.936-53.248 84.992-113.664 39.936-176.128C368.64 240.64 336.896 232.448 296.96 222.208c-27.648-7.168-61.44-16.384-107.52-39.936C122.88 149.504 90.112 75.776 92.16-35.84h479.232c11.264 0 20.48-9.216 20.48-20.48s-9.216-20.48-20.48-20.48H72.704c-11.264 0-19.456 8.192-20.48 19.456-7.168 140.288 32.768 233.472 118.784 276.48 50.176 25.6 87.04 34.816 115.712 43.008 37.888 10.24 57.344 15.36 81.92 50.176 25.6 36.864 2.048 72.704-39.936 129.024-14.336 18.432-28.672 37.888-38.912 57.344-18.432 32.768-23.552 59.392-15.36 80.896 4.096 12.288 12.288 21.504 24.576 28.672-15.36 76.8-7.168 136.192 24.576 176.128C354.304 824.32 408.576 844.8 483.328 844.8s130.048-20.48 163.84-60.416 45.056-99.328 34.816-177.152c13.312-9.216 19.456-19.456 21.504-27.648 8.192-21.504 2.048-49.152-16.384-81.92-11.264-20.48-23.552-36.864-34.816-51.2-27.648-36.864-47.104-63.488-40.96-134.144 1.024-11.264-7.168-21.504-18.432-22.528-11.264-1.024-21.504 7.168-22.528 18.432-8.192 87.04 19.456 123.904 49.152 162.816 11.264 14.336 22.528 28.672 32.768 47.104z"  horiz-adv-x="1024" />

    
    <glyph glyph-name="Reports" unicode="&#59006;" d="M952.32 629.76c0-51.2-40.96-92.16-92.16-92.16-7.168 0-15.36 1.024-21.504 3.072l-138.24-245.76C716.8 278.528 727.04 256 727.04 230.4c0-51.2-40.96-92.16-92.16-92.16s-92.16 40.96-92.16 92.16c0 20.48 6.144 38.912 17.408 54.272l-91.136 118.784c-12.288-6.144-24.576-9.216-38.912-9.216s-27.648 3.072-39.936 9.216l-163.84-208.896C238.592 179.2 245.76 159.744 245.76 138.24c0-51.2-40.96-92.16-92.16-92.16s-92.16 40.96-92.16 92.16 40.96 92.16 92.16 92.16c14.336 0 28.672-3.072 40.96-10.24l163.84 207.872c-12.288 15.36-20.48 35.84-20.48 57.344 0 51.2 40.96 92.16 92.16 92.16s92.16-40.96 92.16-92.16c0-22.528-8.192-43.008-20.48-58.368l90.112-116.736C604.16 318.464 618.496 322.56 634.88 322.56c10.24 0 21.504-2.048 30.72-5.12l136.192 241.664c-20.48 17.408-33.792 41.984-33.792 70.656 0 51.2 40.96 92.16 92.16 92.16s92.16-40.96 92.16-92.16z"  horiz-adv-x="1024" />

    
    <glyph glyph-name="ChargingBattery" unicode="&#59013;" d="M537.6 364.544c-10.24-15.36-21.504-30.72-32.768-45.056-11.264-14.336-25.6-32.768-44.032-53.248-4.096-4.096-10.24-6.144-16.384-3.072-7.168 3.072-10.24 11.264-7.168 18.432l29.696 68.608c0 1.024 1.024 2.048 1.024 2.048 0 3.072-3.072 6.144-6.144 6.144h-36.864c-5.12 0-10.24 2.048-14.336 4.096-11.264 8.192-14.336 23.552-6.144 33.792 10.24 15.36 21.504 29.696 32.768 44.032s25.6 31.744 45.056 53.248c4.096 4.096 10.24 6.144 15.36 3.072 7.168-3.072 10.24-11.264 7.168-18.432l-29.696-66.56c0-1.024-1.024-2.048-1.024-2.048 0-3.072 3.072-6.144 6.144-6.144h36.864c5.12 0 10.24-1.024 14.336-4.096 11.264-8.192 14.336-23.552 6.144-34.816zM972.8 384c0-13.312-1.024-26.624-2.048-38.912-4.096-36.864-34.816-63.488-71.68-63.488h-13.312c-4.096-34.816-9.216-69.632-17.408-103.424-5.12-27.648-28.672-49.152-58.368-55.296C700.416 105.472 585.728 97.28 471.04 97.28c-117.76 0-231.424 8.192-337.92 25.6-29.696 5.12-53.248 27.648-59.392 56.32C58.368 245.76 51.2 313.344 51.2 384s7.168 138.24 22.528 205.824c5.12 27.648 29.696 50.176 58.368 54.272 220.16 33.792 455.68 33.792 675.84 0 29.696-4.096 53.248-26.624 59.392-56.32 8.192-33.792 13.312-67.584 17.408-102.4h13.312c36.864 0 67.584-26.624 71.68-63.488 2.048-11.264 3.072-24.576 3.072-37.888z m-122.88 0c0 67.584-7.168 132.096-21.504 196.608-2.048 13.312-12.288 22.528-24.576 24.576C695.296 621.568 583.68 629.76 471.04 629.76s-224.256-8.192-331.776-25.6c-12.288-2.048-22.528-11.264-24.576-22.528C99.328 516.096 92.16 451.584 92.16 384s7.168-132.096 21.504-195.584c2.048-13.312 12.288-22.528 24.576-24.576C244.736 146.432 356.352 138.24 471.04 138.24c112.64 0 225.28 8.192 331.776 24.576 12.288 2.048 22.528 12.288 24.576 23.552C842.752 251.904 849.92 316.416 849.92 384z m81.92 0c0 11.264-1.024 23.552-2.048 34.816-2.048 14.336-15.36 26.624-30.72 26.624h-10.24c1.024-20.48 2.048-40.96 2.048-61.44s-1.024-40.96-2.048-61.44h10.24c16.384 0 28.672 11.264 30.72 26.624 1.024 11.264 2.048 23.552 2.048 34.816z"  horiz-adv-x="1024" />

    
    <glyph glyph-name="Close" unicode="&#59014;" d="M965.632-40.96c4.096-4.096 6.144-9.216 6.144-14.336s-2.048-10.24-6.144-14.336-9.216-6.144-14.336-6.144-10.24 2.048-14.336 6.144L512 355.328 86.016-69.632c-8.192-8.192-20.48-8.192-28.672 0-4.096 4.096-6.144 9.216-6.144 14.336s2.048 10.24 6.144 14.336L482.304 384 57.344 809.984C53.248 814.08 51.2 819.2 51.2 824.32s2.048 10.24 6.144 14.336c8.192 8.192 20.48 8.192 28.672 0L512 413.696 936.96 838.656c8.192 8.192 20.48 8.192 28.672 0 4.096-4.096 6.144-9.216 6.144-14.336s-2.048-10.24-6.144-14.336L540.672 384l424.96-424.96z"  horiz-adv-x="1024" />

    
    <glyph glyph-name="Alert" unicode="&#59010;" d="M956.416 93.184L581.632 736.256c-17.408 30.72-41.984 47.104-69.632 47.104-26.624 0-52.224-16.384-69.632-47.104L66.56 93.184c-17.408-29.696-19.456-59.392-6.144-82.944 13.312-23.552 39.936-35.84 74.752-35.84h753.664c34.816 0 61.44 13.312 74.752 35.84 13.312 23.552 10.24 53.248-7.168 82.944z m-28.672-62.464c-6.144-10.24-19.456-15.36-38.912-15.36H135.168c-19.456 0-33.792 6.144-38.912 15.36-6.144 10.24-4.096 25.6 6.144 41.984l376.832 643.072c10.24 17.408 22.528 26.624 33.792 26.624s24.576-10.24 33.792-26.624L921.6 72.704c9.216-16.384 12.288-31.744 6.144-41.984zM542.72 179.2c0-17.408-13.312-30.72-30.72-30.72s-30.72 13.312-30.72 30.72 13.312 30.72 30.72 30.72 30.72-13.312 30.72-30.72z m0 296.96v-194.56c0-17.408-13.312-30.72-30.72-30.72s-30.72 13.312-30.72 30.72V476.16c0 17.408 13.312 30.72 30.72 30.72s30.72-13.312 30.72-30.72z"  horiz-adv-x="1024" />

    
    <glyph glyph-name="ContactUser" unicode="&#59016;" d="M850.944 219.136c-52.224 26.624-94.208 35.84-126.976 44.032-41.984 10.24-67.584 15.36-91.136 49.152-25.6 35.84-2.048 72.704 39.936 128 14.336 18.432 28.672 37.888 39.936 57.344 18.432 32.768 23.552 59.392 15.36 80.896-4.096 12.288-12.288 21.504-24.576 29.696 13.312 76.8 4.096 136.192-28.672 176.128C642.048 824.32 586.752 844.8 512 844.8s-129.024-20.48-159.744-60.416c-31.744-39.936-38.912-99.328-23.552-177.152-11.264-7.168-19.456-17.408-23.552-28.672-8.192-21.504-3.072-48.128 15.36-80.896 11.264-19.456 25.6-38.912 38.912-57.344 41.984-55.296 65.536-92.16 39.936-129.024-22.528-32.768-50.176-38.912-95.232-49.152-35.84-7.168-78.848-17.408-132.096-44.032-87.04-43.008-126.976-136.192-118.784-276.48 0-10.24 8.192-18.432 19.456-18.432h876.544c11.264 0 19.456 8.192 20.48 19.456 6.144 140.288-33.792 233.472-118.784 276.48zM516.096-35.84H92.16c-2.048 111.616 30.72 185.344 97.28 218.112 48.128 24.576 88.064 32.768 122.88 40.96 47.104 10.24 88.064 19.456 120.832 65.536 45.056 63.488 0 123.904-39.936 176.128-13.312 17.408-26.624 35.84-36.864 53.248-15.36 28.672-14.336 41.984-12.288 47.104 1.024 2.048 3.072 8.192 16.384 13.312 10.24 4.096 15.36 14.336 12.288 23.552-17.408 71.68-13.312 124.928 12.288 157.696C407.552 788.48 450.56 803.84 512 803.84c62.464 0 106.496-15.36 130.048-45.056 26.624-32.768 32.768-86.016 17.408-157.696-2.048-10.24 3.072-19.456 13.312-23.552 13.312-5.12 15.36-11.264 16.384-13.312 2.048-5.12 3.072-18.432-12.288-47.104-9.216-17.408-23.552-35.84-36.864-53.248-39.936-53.248-84.992-113.664-39.936-176.128 31.744-46.08 70.656-55.296 114.688-65.536 32.768-7.168 69.632-16.384 117.76-39.936 65.536-32.768 98.304-106.496 97.28-218.112H516.096z"  horiz-adv-x="1024" />

    
    <glyph glyph-name="HighBattery" unicode="&#59020;" d="M970.752 422.912c-4.096 36.864-34.816 63.488-71.68 63.488h-14.336c-4.096 34.816-9.216 69.632-17.408 103.424-6.144 28.672-29.696 51.2-59.392 55.296C696.32 662.528 582.656 670.72 471.04 670.72s-225.28-8.192-337.92-25.6c-28.672-4.096-53.248-26.624-59.392-55.296C59.392 521.216 51.2 452.608 51.2 384s8.192-137.216 22.528-205.824c6.144-28.672 29.696-50.176 59.392-55.296C242.688 105.472 356.352 97.28 471.04 97.28s228.352 8.192 337.92 25.6c29.696 4.096 52.224 26.624 59.392 55.296 7.168 34.816 13.312 68.608 17.408 103.424h14.336c36.864 0 67.584 27.648 71.68 63.488 1.024 12.288 2.048 25.6 2.048 38.912s-2.048 25.6-3.072 38.912z m-143.36-236.544c-3.072-12.288-12.288-21.504-25.6-23.552C695.296 146.432 583.68 138.24 471.04 138.24s-224.256 8.192-331.776 24.576c-12.288 2.048-22.528 11.264-25.6 23.552C99.328 251.904 92.16 318.464 92.16 384s7.168 132.096 21.504 196.608c3.072 12.288 13.312 21.504 25.6 23.552C249.856 621.568 361.472 629.76 471.04 629.76s221.184-8.192 331.776-24.576c12.288-2.048 22.528-11.264 25.6-23.552C842.752 516.096 849.92 449.536 849.92 384s-7.168-132.096-22.528-197.632z m102.4 163.84c-2.048-15.36-15.36-27.648-30.72-27.648h-10.24c1.024 20.48 2.048 40.96 2.048 61.44s-1.024 40.96-2.048 61.44h10.24c15.36 0 28.672-11.264 30.72-27.648 1.024-11.264 2.048-22.528 2.048-33.792s-1.024-22.528-2.048-33.792zM283.648 590.848C272.384 516.096 266.24 442.368 266.24 373.76c0-65.536 5.12-131.072 15.36-196.608-39.936 4.096-79.872 8.192-118.784 14.336-8.192 1.024-14.336 7.168-16.384 15.36C131.072 266.24 122.88 324.608 122.88 384s8.192 117.76 23.552 177.152c2.048 8.192 8.192 14.336 16.384 15.36 39.936 6.144 80.896 10.24 120.832 14.336z m41.984 3.072c45.056 3.072 90.112 5.12 135.168 5.12v-430.08c-46.08 0-92.16 2.048-137.216 5.12C312.32 240.64 307.2 307.2 307.2 373.76c0 69.632 6.144 144.384 18.432 220.16zM664.576 384c0-103.424-1.024-206.848-25.6-207.872-45.056-4.096-91.136-6.144-137.216-7.168V599.04c46.08-1.024 92.16-3.072 137.216-6.144 23.552-2.048 25.6-105.472 25.6-208.896z"  horiz-adv-x="1024" />

    
    <glyph glyph-name="Location" unicode="&#59022;" d="M512 844.8C331.776 844.8 184.32 697.344 184.32 517.12c0-186.368 105.472-384 313.344-587.776 4.096-4.096 9.216-6.144 14.336-6.144s10.24 2.048 14.336 6.144C734.208 133.12 839.68 330.752 839.68 517.12 839.68 697.344 692.224 844.8 512 844.8z m0-872.448C321.536 162.816 225.28 346.112 225.28 517.12 225.28 674.816 354.304 803.84 512 803.84s286.72-129.024 286.72-286.72c0-171.008-96.256-354.304-286.72-544.768zM512 691.2c-96.256 0-174.08-77.824-174.08-174.08s77.824-174.08 174.08-174.08 174.08 77.824 174.08 174.08-77.824 174.08-174.08 174.08z m0-307.2c-73.728 0-133.12 59.392-133.12 133.12s59.392 133.12 133.12 133.12 133.12-59.392 133.12-133.12-59.392-133.12-133.12-133.12z"  horiz-adv-x="1024" />

    
    <glyph glyph-name="Message" unicode="&#59024;" d="M786.432 666.624c-214.016 32.768-436.224 32.768-652.288 0H133.12c-29.696-6.144-52.224-28.672-58.368-57.344C59.392 525.312 51.2 442.368 51.2 363.52c0-86.016 8.192-172.032 24.576-257.024 6.144-28.672 27.648-51.2 56.32-57.344C211.968 33.792 290.816 25.6 368.64 25.6c83.968 0 168.96 9.216 253.952 28.672 6.144 2.048 13.312 1.024 19.456-3.072l106.496-53.248c8.192-4.096 15.36-6.144 21.504-7.168h1.024c3.072-1.024 7.168-1.024 10.24-1.024 34.816 0 65.536 25.6 70.656 61.44 11.264 78.848 17.408 166.912 17.408 262.144 0 107.52-8.192 206.848-23.552 295.936-5.12 29.696-29.696 53.248-59.392 57.344z m25.6-609.28c-1.024-8.192-5.12-15.36-12.288-19.456-7.168-5.12-15.36-7.168-21.504-6.144-4.096 1.024-7.168 1.024-9.216 3.072L768 35.84l-107.52 53.248c-10.24 5.12-21.504 8.192-31.744 8.192-5.12 0-10.24-1.024-15.36-2.048-81.92-19.456-163.84-28.672-244.736-28.672-74.752 0-151.552 8.192-228.352 23.552-12.288 2.048-21.504 12.288-23.552 24.576C100.352 196.608 92.16 280.576 92.16 363.52c0 76.8 8.192 156.672 23.552 237.568 2.048 12.288 12.288 22.528 25.6 24.576 211.968 32.768 430.08 31.744 640 0 13.312-2.048 23.552-11.264 25.6-24.576 15.36-86.016 23.552-183.296 23.552-287.744-1.024-93.184-7.168-179.2-18.432-256z m160.768 358.4c0-128-10.24-239.616-30.72-331.776-2.048-9.216-10.24-16.384-19.456-16.384h-4.096c-11.264 2.048-18.432 13.312-15.36 24.576 20.48 89.088 30.72 197.632 30.72 323.584 0 104.448-8.192 201.728-23.552 287.744-2.048 12.288-12.288 22.528-25.6 24.576-221.184 33.792-451.584 32.768-674.816-6.144-11.264-2.048-21.504 5.12-23.552 16.384-2.048 11.264 5.12 21.504 16.384 23.552 227.328 38.912 461.824 40.96 687.104 6.144 29.696-4.096 54.272-27.648 60.416-57.344 14.336-88.064 22.528-187.392 22.528-294.912zM696.32 302.08c0-11.264-9.216-20.48-20.48-20.48H348.16c-11.264 0-20.48 9.216-20.48 20.48s9.216 20.48 20.48 20.48h327.68c11.264 0 20.48-9.216 20.48-20.48z m0 153.6c0-11.264-9.216-20.48-20.48-20.48H245.76c-11.264 0-20.48 9.216-20.48 20.48s9.216 20.48 20.48 20.48h430.08c11.264 0 20.48-9.216 20.48-20.48z"  horiz-adv-x="1024" />

    
    <glyph glyph-name="MoreoptionsVertica" unicode="&#59026;" d="M327.68 455.68c-39.936 0-71.68-31.744-71.68-71.68s31.744-71.68 71.68-71.68 71.68 31.744 71.68 71.68-31.744 71.68-71.68 71.68z m0-102.4c-17.408 0-30.72 13.312-30.72 30.72s13.312 30.72 30.72 30.72 30.72-13.312 30.72-30.72-13.312-30.72-30.72-30.72z m184.32 102.4c-39.936 0-71.68-31.744-71.68-71.68s31.744-71.68 71.68-71.68 71.68 31.744 71.68 71.68-31.744 71.68-71.68 71.68z m0-102.4c-17.408 0-30.72 13.312-30.72 30.72s13.312 30.72 30.72 30.72 30.72-13.312 30.72-30.72-13.312-30.72-30.72-30.72z m184.32 102.4c-39.936 0-71.68-31.744-71.68-71.68s31.744-71.68 71.68-71.68 71.68 31.744 71.68 71.68-31.744 71.68-71.68 71.68z m0-102.4c-17.408 0-30.72 13.312-30.72 30.72s13.312 30.72 30.72 30.72 30.72-13.312 30.72-30.72-13.312-30.72-30.72-30.72zM512 844.8C258.048 844.8 51.2 637.952 51.2 384s206.848-460.8 460.8-460.8 460.8 206.848 460.8 460.8S765.952 844.8 512 844.8z m0-880.64C280.576-35.84 92.16 152.576 92.16 384S280.576 803.84 512 803.84s419.84-188.416 419.84-419.84-188.416-419.84-419.84-419.84z"  horiz-adv-x="1024" />

    
    <glyph glyph-name="Search" unicode="&#59032;" d="M963.584-38.912L711.68 212.992C772.096 280.576 808.96 368.64 808.96 465.92 808.96 674.816 638.976 844.8 430.08 844.8S51.2 674.816 51.2 465.92s169.984-378.88 378.88-378.88c97.28 0 185.344 36.864 252.928 97.28l251.904-251.904c4.096-4.096 9.216-6.144 14.336-6.144s10.24 2.048 14.336 6.144c8.192 8.192 8.192 20.48 0 28.672zM430.08 128C243.712 128 92.16 279.552 92.16 465.92S243.712 803.84 430.08 803.84s337.92-151.552 337.92-337.92-151.552-337.92-337.92-337.92z"  horiz-adv-x="1024" />

    
    <glyph glyph-name="SupportNotification" unicode="&#59035;" d="M329.728 499.712c0 11.264 9.216 20.48 20.48 20.48h231.424c11.264 0 20.48-9.216 20.48-20.48s-9.216-20.48-20.48-20.48H350.208c-11.264 0-20.48 9.216-20.48 20.48z m20.48-205.824h370.688c11.264 0 20.48 9.216 20.48 20.48s-9.216 20.48-20.48 20.48H350.208c-11.264 0-20.48-9.216-20.48-20.48s9.216-20.48 20.48-20.48z m574.464 301.056c-10.24-9.216-21.504-16.384-34.816-22.528 37.888-77.824 51.2-166.912 32.768-254.976-38.912-190.464-211.968-327.68-411.648-327.68-55.296 0-109.568 10.24-160.768 30.72-7.168 3.072-14.336 2.048-20.48-3.072-53.248-40.96-118.784-51.2-162.816-53.248 24.576 30.72 43.008 73.728 53.248 124.928 1.024 7.168-1.024 14.336-6.144 18.432-140.288 138.24-161.792 354.304-51.2 515.072C242.688 738.304 375.808 803.84 513.024 803.84c54.272 0 108.544-10.24 159.744-30.72 9.216-4.096 17.408-7.168 26.624-11.264 6.144 12.288 13.312 24.576 22.528 34.816-11.264 5.12-21.504 10.24-33.792 15.36C485.376 893.952 250.88 824.32 129.024 647.168 9.216 471.04 30.72 238.592 178.176 87.04c-10.24-44.032-30.72-97.28-71.68-123.904-7.168-5.12-10.24-13.312-9.216-21.504 2.048-8.192 8.192-14.336 17.408-16.384 2.048 0 17.408-2.048 41.984-2.048 46.08 0 122.88 8.192 189.44 55.296 52.224-19.456 107.52-29.696 164.864-29.696h1.024c219.136 0 408.576 151.552 451.584 360.448 20.48 99.328 5.12 198.656-38.912 285.696zM829.44 599.04c56.32 0 102.4 46.08 102.4 102.4S885.76 803.84 829.44 803.84s-102.4-46.08-102.4-102.4 46.08-102.4 102.4-102.4z"  horiz-adv-x="1024" />

    
    <glyph glyph-name="Nexttrack" unicode="&#59042;" d="M512 844.8C258.048 844.8 51.2 637.952 51.2 384s206.848-460.8 460.8-460.8 460.8 206.848 460.8 460.8S765.952 844.8 512 844.8z m0-880.64C280.576-35.84 92.16 152.576 92.16 384S280.576 803.84 512 803.84s419.84-188.416 419.84-419.84-188.416-419.84-419.84-419.84z m69.632 458.752L385.024 560.128c-6.144 4.096-12.288 7.168-19.456 8.192-27.648 5.12-54.272-13.312-59.392-40.96-9.216-46.08-13.312-95.232-13.312-146.432 0-49.152 4.096-96.256 13.312-140.288 1.024-7.168 3.072-13.312 7.168-20.48l1.024-1.024c10.24-13.312 26.624-21.504 41.984-21.504 9.216 0 19.456 3.072 28.672 8.192l196.608 131.072c5.12 3.072 10.24 8.192 13.312 13.312 8.192 11.264 11.264 26.624 9.216 39.936-4.096 14.336-11.264 26.624-22.528 32.768z m-21.504-48.128l-2.048-2.048-196.608-131.072c-5.12-3.072-11.264-1.024-15.36 3.072v1.024 3.072c-8.192 40.96-13.312 86.016-13.312 133.12 0 48.128 4.096 94.208 13.312 138.24 1.024 5.12 7.168 9.216 11.264 8.192 2.048 0 3.072-1.024 5.12-2.048l197.632-136.192c2.048-2.048 3.072-4.096 4.096-5.12-1.024-4.096-1.024-7.168-4.096-10.24zM710.656 558.08c14.336-56.32 21.504-115.712 21.504-179.2 0-49.152-7.168-106.496-20.48-167.936-2.048-9.216-10.24-16.384-19.456-16.384h-4.096c-11.264 2.048-18.432 13.312-15.36 24.576 13.312 59.392 20.48 112.64 20.48 159.744 0 60.416-6.144 115.712-19.456 168.96-3.072 11.264 4.096 22.528 15.36 24.576 8.192 3.072 19.456-3.072 21.504-14.336z"  horiz-adv-x="1024" />

    
    <glyph glyph-name="Previoustrack" unicode="&#59046;" d="M512 844.8C258.048 844.8 51.2 637.952 51.2 384s206.848-460.8 460.8-460.8 460.8 206.848 460.8 460.8S765.952 844.8 512 844.8z m0-880.64C280.576-35.84 92.16 152.576 92.16 384S280.576 803.84 512 803.84s419.84-188.416 419.84-419.84-188.416-419.84-419.84-419.84z m185.344 595.968c-11.264 8.192-24.576 10.24-38.912 8.192-7.168-1.024-13.312-4.096-19.456-8.192L442.368 423.936c-11.264-7.168-19.456-18.432-21.504-31.744-3.072-13.312 1.024-28.672 8.192-39.936 3.072-5.12 8.192-10.24 14.336-14.336l196.608-131.072c8.192-5.12 18.432-8.192 27.648-8.192 16.384 0 31.744 7.168 41.984 21.504l1.024 1.024c4.096 6.144 7.168 13.312 7.168 20.48 9.216 43.008 13.312 90.112 13.312 140.288s-5.12 99.328-13.312 146.432c-2.048 12.288-9.216 23.552-20.48 31.744z m-19.456-312.32v-4.096c-3.072-4.096-10.24-6.144-15.36-3.072L465.92 372.736l-3.072 3.072c-2.048 2.048-2.048 5.12-2.048 8.192 0 2.048 1.024 4.096 4.096 6.144l196.608 136.192c2.048 1.024 3.072 2.048 5.12 2.048 3.072 1.024 6.144-1.024 7.168-2.048 1.024-1.024 4.096-3.072 4.096-6.144 8.192-44.032 13.312-90.112 13.312-138.24 0-48.128-4.096-93.184-13.312-134.144z m-324.608-28.672c2.048-11.264-4.096-21.504-15.36-24.576h-4.096c-9.216 0-17.408 6.144-19.456 16.384-14.336 62.464-20.48 118.784-20.48 167.936 0 63.488 7.168 121.856 21.504 179.2 3.072 11.264 14.336 17.408 24.576 15.36 11.264-3.072 17.408-14.336 15.36-24.576-13.312-53.248-19.456-108.544-19.456-168.96-3.072-47.104 4.096-101.376 17.408-160.768z"  horiz-adv-x="1024" />

    
    <glyph glyph-name="Rewind" unicode="&#59047;" d="M512 844.8C258.048 844.8 51.2 637.952 51.2 384s206.848-460.8 460.8-460.8 460.8 206.848 460.8 460.8S765.952 844.8 512 844.8z m0-880.64C280.576-35.84 92.16 152.576 92.16 384S280.576 803.84 512 803.84s419.84-188.416 419.84-419.84-188.416-419.84-419.84-419.84z m166.912 604.16c-6.144-1.024-13.312-3.072-20.48-9.216l-194.56-135.168c-11.264-7.168-19.456-18.432-21.504-31.744-3.072-13.312 1.024-28.672 8.192-39.936 3.072-5.12 8.192-10.24 14.336-14.336l196.608-131.072c8.192-5.12 18.432-8.192 27.648-8.192 16.384 0 31.744 7.168 41.984 21.504l1.024 1.024c4.096 6.144 7.168 13.312 7.168 20.48 9.216 43.008 13.312 90.112 13.312 139.264 0 50.176-5.12 99.328-14.336 147.456-6.144 26.624-31.744 44.032-59.392 39.936z m19.456-320.512v-4.096c-3.072-4.096-10.24-6.144-15.36-3.072L486.4 372.736l-3.072 3.072c-2.048 2.048-2.048 5.12-2.048 8.192 0 2.048 1.024 4.096 4.096 6.144l196.608 136.192c1.024 0 1.024 1.024 2.048 1.024h2.048c7.168 1.024 11.264-4.096 12.288-9.216 8.192-44.032 13.312-90.112 13.312-138.24 0-47.104-4.096-91.136-13.312-132.096z m-133.12-4.096c0-7.168-2.048-15.36-7.168-22.528l-1.024-1.024c-10.24-13.312-26.624-21.504-41.984-21.504-9.216 0-19.456 3.072-27.648 8.192L290.816 337.92c-5.12 3.072-10.24 8.192-14.336 14.336-8.192 11.264-11.264 25.6-8.192 39.936 3.072 13.312 10.24 24.576 21.504 31.744l194.56 135.168c7.168 6.144 14.336 8.192 19.456 9.216h1.024c13.312 2.048 26.624 0 37.888-8.192s19.456-19.456 21.504-32.768c2.048-11.264-5.12-21.504-16.384-23.552s-21.504 5.12-23.552 16.384c-1.024 3.072-3.072 5.12-4.096 6.144-1.024 1.024-4.096 2.048-7.168 2.048-1.024-1.024-1.024-1.024-2.048-1.024s-1.024-1.024-2.048-1.024L312.32 390.144c-3.072-2.048-4.096-4.096-4.096-6.144-1.024-3.072 0-6.144 2.048-8.192l3.072-3.072 195.584-131.072c5.12-3.072 11.264-1.024 15.36 3.072v1.024c1.024 10.24 9.216 19.456 20.48 19.456 11.264-1.024 20.48-10.24 20.48-21.504z"  horiz-adv-x="1024" />

    
    <glyph glyph-name="Stop" unicode="&#59050;" d="M648.192 563.2c-44.032 7.168-89.088 10.24-136.192 10.24-48.128 0-93.184-3.072-136.192-10.24-22.528-3.072-38.912-20.48-43.008-43.008-7.168-44.032-10.24-89.088-10.24-136.192 0-48.128 3.072-93.184 10.24-136.192v-2.048c5.12-19.456 20.48-35.84 40.96-40.96h2.048c44.032-7.168 89.088-10.24 136.192-10.24 48.128 0 93.184 3.072 136.192 10.24 22.528 3.072 38.912 20.48 43.008 43.008 7.168 44.032 10.24 89.088 10.24 136.192 0 48.128-3.072 93.184-10.24 136.192-4.096 22.528-20.48 38.912-43.008 43.008z m2.048-309.248c-1.024-4.096-4.096-8.192-8.192-8.192-40.96-7.168-83.968-10.24-130.048-10.24-45.056 0-87.04 3.072-129.024 10.24-4.096 1.024-8.192 5.12-10.24 10.24-6.144 40.96-10.24 82.944-10.24 129.024 0 45.056 3.072 88.064 10.24 130.048 1.024 4.096 4.096 8.192 8.192 8.192 40.96 7.168 83.968 10.24 130.048 10.24 45.056 0 88.064-3.072 130.048-10.24 4.096-1.024 8.192-4.096 8.192-8.192 7.168-40.96 10.24-83.968 10.24-130.048 1.024-46.08-2.048-89.088-9.216-131.072zM512 844.8C258.048 844.8 51.2 637.952 51.2 384s206.848-460.8 460.8-460.8 460.8 206.848 460.8 460.8S765.952 844.8 512 844.8z m0-880.64C280.576-35.84 92.16 152.576 92.16 384S280.576 803.84 512 803.84s419.84-188.416 419.84-419.84-188.416-419.84-419.84-419.84z"  horiz-adv-x="1024" />

    


  </font>
</defs>
</svg>
